<?xml version="1.0" encoding="utf-8"?>
<!-- Generator: Adobe Illustrator 19.0.0, SVG Export Plug-In . SVG Version: 6.00 Build 0)  -->
<svg version="1.1" id="圖層_1" xmlns="http://www.w3.org/2000/svg" xmlns:xlink="http://www.w3.org/1999/xlink" x="0px" y="0px"
	 viewBox="0 0 77.7 93.8" style="enable-background:new 0 0 77.7 93.8;" xml:space="preserve">
<style type="text/css">
	.st0{fill:#94BD24;}
	.st1{fill:#231815;}
	.st2{fill:#FFE600;}
	.st3{fill:#FFFFFF;}
</style>
<g id="XMLID_279_">
	<path id="XMLID_291_" class="st0" d="M36.7,28.6c-4.4-4.4-13.5-6.5-19.1-3.5c-3.8,2-7.5,3.9-10.4,7.2C3.5,36.7,2,43.4,0.9,49
		c-1.1,5.5-1.4,11.2,0,16.6c0.7,2.6,2.2,5.2,3.5,7.6c1.6,3,3.6,6,6,8.4c4.9,5,11.3,6.2,17.6,8.6c5.8,2.2,12.7,4.6,18.9,3.2
		c3.1-0.7,6.2-2.3,9-3.7c2.9-1.4,5.9-2.9,8.5-4.7c6.3-4.6,8.9-13.4,11.3-20.4c2-5.7,2.6-12.6,2-18.7c-0.6-5.3-2.3-11-6.1-15
		c-5.2-5.4-13.2-7.8-20.4-7.6c-3.1,0.1-5.3,1.1-8.1,2.2c-1.9,0.8-5.1,1.5-6.2,3.4c-0.2,0.3-0.3,0.6-0.4,0.9L36.7,28.6z"/>
	<path id="XMLID_290_" class="st1" d="M36.2,29.5c0.5-4,1.2-8.1,2.4-11.9c1-3.4,2.7-8.5,6.1-10.1c1.2-0.6,3.6-1,5-0.5
		c3,1.2-1,3.3-1.9,4.4c-2,2.6-4.3,5.3-5.3,8.5c-1.1,3.2-2.1,6.6-2.6,10c-0.2,1.2-0.4,2.4-0.5,3.5c-0.1,0.6,0,1.9-0.4,2.4
		c-1.1,1.4-2.9,0.4-3.1-1.1C35.5,33.2,36,31,36.2,29.5z"/>
	<path id="XMLID_289_" class="st2" d="M28.3,3.7c-2.9-2-6.8-3.4-10.3-3.7c-2.6-0.2-2.3,1.2-2.3,3.5c0.2,7.4,4.5,12.2,11.3,14.7
		c2.8,1,11.7,3.2,11.5-2C38.2,10.6,32.4,6.5,28.3,3.7z"/>
	<g id="XMLID_286_">
		<path id="XMLID_288_" class="st3" d="M25.9,47.2c0,2.9-2.3,5.2-5.2,5.2c-2.9,0-5.2-2.3-5.2-5.2c0-2.9,2.3-5.2,5.2-5.2
			C23.6,42,25.9,44.3,25.9,47.2z"/>
		<path id="XMLID_287_" class="st1" d="M24.5,47.2c0,2.1-1.7,3.8-3.8,3.8c-2.1,0-3.8-1.7-3.8-3.8c0-2.1,1.7-3.8,3.8-3.8
			C22.8,43.3,24.5,45,24.5,47.2z"/>
	</g>
	<g id="XMLID_281_">
		<path id="XMLID_284_" class="st3" d="M60.5,53.7c0,2.9-2.3,5.2-5.2,5.2c-2.9,0-5.2-2.3-5.2-5.2c0-2.9,2.3-5.2,5.2-5.2
			C58.1,48.6,60.5,50.9,60.5,53.7z"/>
		<path id="XMLID_282_" class="st1" d="M59.1,53.7c0,2.1-1.7,3.8-3.8,3.8c-2.1,0-3.8-1.7-3.8-3.8c0-2.1,1.7-3.8,3.8-3.8
			C57.4,49.9,59.1,51.6,59.1,53.7z"/>
	</g>
	<path id="XMLID_280_" class="st1" d="M26.2,58.8c2.6,4.1,6.2,4.5,9.3,4.7c2.1,0.1,4.2,0.1,6.2-0.6c1.4-0.5,2.5-1.4,3.8-1.9
		c0.3,1,1.7,2.2,1.3,3.4c-1.6,0.3-1.9-0.7-3,0.7c-1.1,1.3-2.2,2.1-3.5,3.1c-1.4,1.1-2.7,2-4.4,2.6c-0.9,0.3-3,1.3-4,0.8
		c-1.8-0.9-2.7-4.6-3.6-6.2c-0.5-0.8-0.8-2.1-1.4-2.8c-0.8-1-1.6-0.8-2.9-1c-0.3-1.3,0.7-2.6,1.3-3.9L26.2,58.8z"/>
</g>
</svg>
