<?xml version="1.0" encoding="utf-8"?>
<!-- Generator: Adobe Illustrator 19.0.0, SVG Export Plug-In . SVG Version: 6.00 Build 0)  -->
<svg version="1.1" id="圖層_1" xmlns="http://www.w3.org/2000/svg" xmlns:xlink="http://www.w3.org/1999/xlink" x="0px" y="0px"
	 viewBox="0 0 317 334.7" style="enable-background:new 0 0 317 334.7;" xml:space="preserve">
<style type="text/css">
	.st0{fill:#9CB13C;stroke:#715534;stroke-width:3.0315;stroke-miterlimit:10;}
	.st1{fill:#F9EAB2;}
	.st2{fill:#463420;}
	.st3{fill:#3B5E41;}
	.st4{fill:#9CB13C;}
	.st5{fill:#905824;}
	.st6{fill:#E52123;}
	.st7{opacity:0.3;fill:#FFFCFC;}
	.st8{fill:#EF8732;}
	.st9{fill:#F4AF33;}
	.st10{fill:#F4B234;}
	.st11{fill:#E95F33;}
	.st12{fill:#F09331;}
	.st13{fill:#3A4064;}
	.st14{fill:#292E49;}
	.st15{fill:#191E2F;}
	.st16{opacity:0.2;fill:#FFFFFF;}
	.st17{fill:#584B29;}
	.st18{fill:#E69C28;}
	.st19{fill:#EFAA48;}
	.st20{fill:#537937;}
	.st21{fill:#5D8C40;}
	.st22{fill:#C1D489;}
	.st23{fill:#61441E;}
	.st24{fill:#942D52;}
	.st25{opacity:0.6;fill:#FFFFFF;}
	.st26{fill:#F4B848;}
	.st27{opacity:0.2;fill:#FAF7F3;}
	.st28{opacity:0.3;fill:#FFFFFF;}
	.st29{fill:#E99F27;}
	.st30{fill:#F0D64A;}
	.st31{fill:#F6E996;}
	.st32{fill:#F1CA27;}
	.st33{fill:#974323;}
	.st34{fill:#C52327;}
	.st35{fill:#AC222A;}
	.st36{fill:#DDA229;}
	.st37{fill:#653C1C;}
	.st38{fill:#ECCA3B;}
	.st39{fill:#E2B91F;}
	.st40{fill:#040000;}
	.st41{fill:#F4F098;}
	.st42{fill:#0D0B0B;}
</style>
<g id="XMLID_272_">
	<g id="XMLID_273_">
		<g id="XMLID_463_">
			<path id="XMLID_491_" class="st0" d="M267.7,238.4c0,22.5-18.2,40.7-40.7,40.7s-40.7-18.2-40.7-40.7c0-22.5,18.2-40.7,40.7-40.7
				S267.7,215.9,267.7,238.4z"/>
			<g id="XMLID_488_">
				<polygon id="XMLID_752_" class="st1" points="244.7,239.4 241.8,244.2 241.3,249.8 236.2,251.9 232.5,256.2 227.1,254.9 
					221.6,256.2 217.9,251.9 212.8,249.8 212.3,244.2 209.4,239.4 212.3,234.6 212.8,229 217.9,226.9 221.6,222.6 227.1,223.9 
					232.5,222.6 236.2,226.9 241.3,229 241.8,234.6 				"/>
			</g>
			<path id="XMLID_487_" class="st2" d="M227,221.6c0,0-2-4.3-0.2-4.5C228.6,216.9,228.2,220,227,221.6z"/>
			<path id="XMLID_486_" class="st2" d="M222.4,222.2c0,0-3-3.6-1.3-4.3C222.8,217.2,223.1,220.4,222.4,222.2z"/>
			<path id="XMLID_485_" class="st2" d="M218.1,224c0,0-3.9-2.7-2.4-3.8C217.2,219.1,218.3,222.1,218.1,224z"/>
			<path id="XMLID_484_" class="st2" d="M214.4,226.9c0,0-4.4-1.6-3.3-3.1C212.3,222.4,214.2,224.9,214.4,226.9z"/>
			<path id="XMLID_483_" class="st2" d="M211.6,230.6c0,0-4.7-0.4-4-2.1C208.4,226.8,210.9,228.7,211.6,230.6z"/>
			<path id="XMLID_482_" class="st2" d="M209.9,234.8c0,0-4.6,0.8-4.4-1C205.7,232,208.6,233.3,209.9,234.8z"/>
			<path id="XMLID_481_" class="st2" d="M209.3,239.4c0,0-4.3,2-4.5,0.2C204.5,237.8,207.7,238.3,209.3,239.4z"/>
			<path id="XMLID_480_" class="st2" d="M209.9,244c0,0-3.6,3-4.3,1.3C204.9,243.7,208.1,243.3,209.9,244z"/>
			<path id="XMLID_479_" class="st2" d="M211.7,248.3c0,0-2.7,3.9-3.8,2.4C206.8,249.3,209.7,248.1,211.7,248.3z"/>
			<path id="XMLID_478_" class="st2" d="M214.5,252c0,0-1.6,4.4-3.1,3.3C210,254.2,212.6,252.3,214.5,252z"/>
			<path id="XMLID_477_" class="st2" d="M218.2,254.8c0,0-0.4,4.7-2.1,4C214.4,258.1,216.4,255.6,218.2,254.8z"/>
			<path id="XMLID_476_" class="st2" d="M222.5,256.6c0,0,0.8,4.6-1,4.4C219.7,260.7,221,257.8,222.5,256.6z"/>
			<path id="XMLID_475_" class="st2" d="M227.1,257.2c0,0,2,4.3,0.2,4.5C225.5,261.9,225.9,258.7,227.1,257.2z"/>
			<path id="XMLID_474_" class="st2" d="M231.7,256.6c0,0,3,3.6,1.3,4.3C231.3,261.5,231,258.4,231.7,256.6z"/>
			<path id="XMLID_473_" class="st2" d="M236,254.8c0,0,3.9,2.7,2.4,3.8C236.9,259.7,235.8,256.7,236,254.8z"/>
			<path id="XMLID_472_" class="st2" d="M239.7,251.9c0,0,4.4,1.6,3.3,3.1C241.8,256.4,239.9,253.9,239.7,251.9z"/>
			<path id="XMLID_471_" class="st2" d="M242.5,248.2c0,0,4.7,0.4,4,2.1C245.7,252,243.3,250,242.5,248.2z"/>
			<path id="XMLID_470_" class="st2" d="M244.2,243.9c0,0,4.6-0.8,4.4,1C248.4,246.8,245.5,245.5,244.2,243.9z"/>
			<path id="XMLID_469_" class="st2" d="M244.8,239.3c0,0,4.3-2,4.5-0.2C249.6,241,246.4,240.5,244.8,239.3z"/>
			<path id="XMLID_468_" class="st2" d="M244.2,234.7c0,0,3.6-3,4.3-1.3C249.2,235.1,246,235.5,244.2,234.7z"/>
			<path id="XMLID_467_" class="st2" d="M242.4,230.5c0,0,2.7-3.9,3.8-2.4C247.3,229.5,244.4,230.7,242.4,230.5z"/>
			<path id="XMLID_466_" class="st2" d="M239.6,226.8c0,0,1.6-4.4,3.1-3.3C244.1,224.6,241.5,226.5,239.6,226.8z"/>
			<path id="XMLID_465_" class="st2" d="M235.9,224c0,0,0.4-4.7,2.1-4C239.7,220.7,237.7,223.2,235.9,224z"/>
			<path id="XMLID_464_" class="st2" d="M231.6,222.2c0,0-0.8-4.6,1-4.4C234.4,218.1,233.2,221,231.6,222.2z"/>
		</g>
		<g id="XMLID_457_">
			<path id="XMLID_462_" class="st3" d="M179.9,277.9c0,28-22.7,50.7-50.7,50.7c-28,0-50.7-22.7-50.7-50.7c0-28,22.7-50.7,50.7-50.7
				C157.2,227.1,179.9,249.9,179.9,277.9z"/>
			<path id="XMLID_461_" class="st4" d="M171.2,277.9c0,5-2.4,9.6-3.5,14.1c-1.2,4.8-1.2,10-3.4,14.1c-2.3,4.4-6.7,7.2-10,10.5
				c-3.5,3.5-6.5,7.8-10.8,9.7c-4.4,2-9.5,1.3-14.4,1.3c-4.9,0-10,0.7-14.4-1.3c-4.3-1.9-7.3-6.2-10.8-9.7c-3.3-3.3-7.6-6.1-10-10.5
				c-2.2-4.1-2.2-9.3-3.4-14.1c-1.1-4.5-3.5-9.1-3.5-14.1c0-5,2.4-9.6,3.5-14.1c1.2-4.8,1.2-10,3.4-14.1c2.3-4.4,6.7-7.2,10-10.5
				c3.5-3.5,6.5-7.8,10.8-9.7c4.4-2,9.5-1.3,14.4-1.3c4.9,0,10-0.7,14.4,1.3c4.3,1.9,7.3,6.2,10.8,9.7c3.3,3.3,7.6,6.1,10,10.5
				c2.2,4.1,2.2,9.3,3.4,14.1C168.8,268.3,171.2,272.9,171.2,277.9z"/>
			<path id="XMLID_460_" class="st3" d="M161.5,278c0,4.5-2.2,8.7-2.9,12.9c-0.7,4.5-0.1,9.2-1.5,13.1c-1.6,4.3-5.2,7.5-7.5,10.8
				c-2.6,3.9-4.4,8.3-7.7,10.6c-3.8,2.6-8.4,2.3-12.8,2.3c-4.3,0-9,0.2-12.8-2.3c-3.3-2.3-5.1-6.7-7.7-10.6
				c-2.3-3.4-5.9-6.5-7.5-10.8c-1.4-3.9-0.8-8.6-1.5-13.1c-0.7-4.2-2.9-8.4-2.9-12.9c0-4.5,2.2-8.7,2.9-12.9
				c0.7-4.5,0.1-9.2,1.5-13.1c1.6-4.3,5.2-7.5,7.5-10.8c2.6-3.9,4.4-8.3,7.7-10.6c3.8-2.6,8.4-2.3,12.8-2.3c4.3,0,9-0.2,12.8,2.3
				c3.3,2.3,5.1,6.7,7.7,10.6c2.3,3.4,5.9,6.5,7.5,10.8c1.4,3.9,0.8,8.6,1.5,13.1C159.3,269.3,161.5,273.5,161.5,278z"/>
			<path id="XMLID_459_" class="st4" d="M147.2,278c0,3.9-2,7.6-2.2,11.2c-0.3,3.9,1,7.9,0.5,11.5c-0.7,4-3.3,7.3-4.3,10.6
				c-1.2,4.1-1,8.4-2.7,11.2c-2.5,4.3-6.2,5.3-9.3,5.3c-3.1,0-6.8-1.1-9.3-5.3c-1.6-2.8-1.4-7-2.6-11.2c-1-3.3-3.6-6.6-4.3-10.6
				c-0.6-3.5,0.8-7.5,0.5-11.4c-0.3-3.6-2.2-7.4-2.2-11.2c0-3.9,2-7.6,2.2-11.2c0.3-3.9-1-7.9-0.5-11.4c0.7-4,3.3-7.3,4.3-10.6
				c1.2-4.1,1-8.4,2.6-11.2c2.5-4.3,6.2-5.3,9.3-5.3c3.1,0,6.8,1.1,9.3,5.3c1.6,2.8,1.4,7,2.7,11.2c1,3.3,3.6,6.6,4.3,10.6
				c0.6,3.5-0.8,7.5-0.5,11.5C145.2,270.4,147.2,274.1,147.2,278z"/>
			<path id="XMLID_458_" class="st3" d="M137.5,277.9c0,3.6-1.9,7.1-2,10.4c-0.1,3.6,1.5,7.2,1.3,10.5c-0.2,3.7-2.4,7.1-2.7,10.2
				c-0.5,4,0.8,7.7,0.2,10.6c-1.2,5.7-3.5,8-5.1,8c-1.6,0-3.9-2.3-5.1-8c-0.6-2.9,0.7-6.7,0.2-10.6c-0.4-3.2-2.5-6.5-2.7-10.2
				c-0.2-3.3,1.4-6.9,1.3-10.5c-0.1-3.4-2-6.8-2-10.4c0-3.6,1.9-7.1,2-10.4c0.1-3.6-1.5-7.2-1.3-10.5c0.2-3.7,2.4-7.1,2.7-10.2
				c0.5-4-0.8-7.7-0.2-10.6c1.2-5.7,3.5-8,5.1-8c1.6,0,3.9,2.3,5.1,8c0.6,2.9-0.6,6.7-0.2,10.6c0.4,3.2,2.5,6.5,2.7,10.2
				c0.2,3.3-1.4,6.9-1.3,10.5C135.6,270.8,137.5,274.3,137.5,277.9z"/>
		</g>
		<g id="XMLID_449_">
			<g id="XMLID_455_">
				<path id="XMLID_456_" class="st5" d="M43.4,127.8l-1.4,0.6l0.8-0.4l-0.9,0.5c-0.1-0.2-12.9-14.8-30.7-13l-0.3-3.3
					C30.5,110.2,42.9,127.1,43.4,127.8z"/>
			</g>
			<g id="XMLID_450_">
				<path id="XMLID_454_" class="st6" d="M86.5,182.7c-7.6,9.3-32.4,2.6-49.5-9.6c-8.2-5.9-13.8-12.5-16.1-19
					c-2.2-6.2-1.4-12.4,2.1-17.4c0.2-0.3,0.5-0.6,0.7-0.9c4.9-6,11.6-9.1,13.5-12.3c2.1-1.8,4.5-9.8,9.3-15.8c0.3-0.4,0.7-0.8,1-1.1
					c4.2-4.5,10.2-6.4,16.7-5.4c6.9,1.1,14.4,5.3,21.7,12.3c7.4,7.1,13.9,16.1,17.8,24.8c4.3,9.6,4.7,17.4,1.1,21.8c0,0,0,0,0,0
					c-0.2,0.2-0.3,0.4-0.5,0.6c-2,2.1-3.6,3.2-5,4.1c-1.7,1.1-3.2,2.1-5.5,4.9c-2.1,2.6-2.8,4.4-3.6,6.4c-0.7,1.8-1.5,3.8-3.3,6.3
					C86.7,182.4,86.6,182.5,86.5,182.7z"/>
				<path id="XMLID_453_" class="st3" d="M25.5,154.8c0,0,13.9-29.5-8.3-39.3C17.2,115.5-8.5,136.2,25.5,154.8z"/>
				<path id="XMLID_452_" class="st4" d="M16.7,115.6c0,0-3.2,7,1.8,24.1L17,128.9l3.8,7.5l-4.1-10.6l-0.1-3.2l2.1,3.1l-1.8-5.1
					L16.7,115.6z"/>
				<path id="XMLID_451_" class="st7" d="M40.3,162.1c4.5,4.2,7.6,8.1,7,8.8c-0.6,0.6-4.7-2.3-9.2-6.5c-4.5-4.2-7.6-8.1-7-8.8
					C31.7,155,35.8,157.9,40.3,162.1z"/>
			</g>
		</g>
		<g id="XMLID_443_">
			<g id="XMLID_447_">
				<path id="XMLID_448_" class="st5" d="M109.5,51.8l-1.5-0.3l0.8,0.1l-1-0.1c0-0.2-2.1-19.5-17.8-28.1l1.6-2.9
					C109,30,109.5,50.9,109.5,51.8z"/>
			</g>
			<path id="XMLID_446_" class="st8" d="M159,56.4c6.8,23.2-4.7,47-25.7,53.1c-20.9,6.1-43.4-7.8-50.2-31
				c-6.8-23.2,4.7-47,25.7-53.1C129.8,19.3,152.2,33.2,159,56.4z"/>
			<path id="XMLID_445_" class="st9" d="M141.1,57.9c9.8,22.8,1.1,48.4-19.4,57.2c-20.5,8.8-45.1-2.5-54.9-25.2
				C57,67.1,65.7,41.5,86.2,32.6C106.7,23.8,131.3,35.1,141.1,57.9z"/>
			<path id="XMLID_444_" class="st3" d="M98.2,29.9c0,0,38.2,17.3,55.2-5.8C153.4,24.1,128.4-4.8,98.2,29.9z"/>
		</g>
		<g id="XMLID_368_">
			<g id="XMLID_438_">
				<path id="XMLID_442_" class="st1" d="M238.1,74c0,23.9-19.4,43.3-43.3,43.3c-23.9,0-43.3-19.4-43.3-43.3
					c0-23.9,19.4-43.3,43.3-43.3C218.7,30.7,238.1,50.1,238.1,74z"/>
				<path id="XMLID_439_" class="st10" d="M194.8,118.6c-24.6,0-44.6-20-44.6-44.6c0-24.6,20-44.6,44.6-44.6
					c24.6,0,44.6,20,44.6,44.6C239.4,98.6,219.4,118.6,194.8,118.6z M194.8,32c-23.2,0-42,18.9-42,42c0,23.2,18.9,42,42,42
					c23.2,0,42-18.9,42-42C236.9,50.8,218,32,194.8,32z"/>
			</g>
			<path id="XMLID_437_" class="st11" d="M204.3,43.5l-8.2,27c-0.7,2.4-1.9,2.4-2.6,0l-8-27.1c-0.7-2.4,0.7-5,3.1-5.4
				c2-0.3,4-0.5,6.1-0.5c2.2,0,4.3,0.2,6.4,0.6C203.7,38.5,205,41.1,204.3,43.5z"/>
			<path id="XMLID_436_" class="st11" d="M181.9,44.8l11.1,26c1,2.3,0.1,3.1-2,1.7l-23.5-15.6c-2.1-1.4-2.7-4.2-1.1-6.2
				c1.3-1.5,2.8-3,4.4-4.3c1.7-1.4,3.4-2.6,5.3-3.7C178.2,41.4,180.9,42.5,181.9,44.8z"/>
			<path id="XMLID_435_" class="st11" d="M165.6,60.1l25.2,12.7c2.2,1.1,2,2.3-0.5,2.6l-28.1,3.2c-2.5,0.3-4.8-1.5-4.8-4
				c0-2,0.2-4.1,0.6-6.1c0.4-2.1,0.9-4.2,1.7-6.2C160.6,59.9,163.3,59,165.6,60.1z"/>
			<path id="XMLID_434_" class="st11" d="M162.9,82.4l27.5-6.4c2.4-0.6,3,0.4,1.3,2.3l-19.5,20.5c-1.7,1.8-4.6,1.9-6.3,0
				c-1.3-1.6-2.5-3.2-3.5-5.1c-1.1-1.9-2-3.8-2.7-5.8C158.9,85.4,160.5,83,162.9,82.4z"/>
			<path id="XMLID_433_" class="st11" d="M175.2,101.2l16.9-22.6c1.5-2,2.6-1.6,2.4,0.9l-1.8,28.2c-0.2,2.5-2.3,4.5-4.8,4
				c-2-0.4-4-0.9-5.9-1.6c-2-0.7-4-1.7-5.8-2.7C174.1,106.1,173.7,103.2,175.2,101.2z"/>
			<path id="XMLID_432_" class="st11" d="M196.7,107.6l-1.6-28.2c-0.1-2.5,1-2.9,2.4-0.9l16.8,22.7c1.5,2,1.1,4.9-1.1,6.2
				c-1.8,1-3.6,1.9-5.6,2.6c-2,0.7-4.1,1.3-6.2,1.7C198.9,112.1,196.8,110.2,196.7,107.6z"/>
			<path id="XMLID_431_" class="st11" d="M217.3,98.8l-19.3-20.6c-1.7-1.8-1.1-2.8,1.3-2.3l27.5,6.6c2.4,0.6,4,3.1,3.1,5.4
				c-0.7,1.9-1.6,3.8-2.6,5.6c-1.1,1.9-2.3,3.6-3.7,5.3C221.9,100.8,219,100.7,217.3,98.8z"/>
			<path id="XMLID_430_" class="st11" d="M227.4,78.8l-28-3.3c-2.5-0.3-2.7-1.5-0.4-2.6l25.3-12.6c2.2-1.1,5-0.2,5.9,2.1
				c0.7,1.9,1.2,3.9,1.6,6c0.4,2.1,0.6,4.3,0.6,6.4C232.2,77.3,229.9,79.1,227.4,78.8z"/>
			<path id="XMLID_429_" class="st11" d="M222.3,57l-23.6,15.5c-2.1,1.4-3,0.6-2-1.7l11.3-25.9c1-2.3,3.7-3.4,5.9-2.1
				c1.8,1,3.4,2.2,5,3.5c1.7,1.4,3.2,2.9,4.5,4.5C225,52.7,224.4,55.6,222.3,57z"/>
			<g id="XMLID_423_">
				<path id="XMLID_428_" class="st12" d="M195.8,64.1l-0.5,2.9c-0.2,1.3-0.6,1.3-0.9,0l-0.5-2.9c-0.2-1.3-0.1-2.6,0.3-2.7
					c0.2-0.1,0.5-0.1,0.7-0.1c0.2,0,0.5,0,0.7,0.1C195.9,61.5,196,62.7,195.8,64.1z"/>
				<path id="XMLID_427_" class="st12" d="M196.1,45.1l-0.5,2.9c-0.2,1.3-0.6,1.3-0.9,0l-0.5-2.9c-0.2-1.3-0.1-2.6,0.2-2.7
					c0.2-0.1,0.5-0.1,0.7-0.1c0.2,0,0.5,0,0.7,0.1C196.2,42.6,196.3,43.8,196.1,45.1z"/>
				<path id="XMLID_426_" class="st12" d="M191.5,45.4l0,3c0,1.3-0.4,1.4-0.8,0.1l-1-2.8c-0.5-1.3-0.6-2.5-0.2-2.7
					c0.2-0.1,0.4-0.2,0.7-0.2c0.2,0,0.5,0,0.7,0C191.2,42.9,191.5,44.1,191.5,45.4z"/>
				<path id="XMLID_425_" class="st12" d="M197.8,55.2l-1,2.8c-0.5,1.3-0.8,1.2-0.8-0.1l0-3c0-1.4,0.3-2.6,0.7-2.6
					c0.2,0,0.5,0,0.7,0c0.2,0,0.5,0.1,0.7,0.2C198.3,52.7,198.2,54,197.8,55.2z"/>
				<path id="XMLID_424_" class="st12" d="M200.5,45.7l-1,2.8c-0.5,1.3-0.8,1.2-0.8-0.1l0-3c0-1.4,0.3-2.6,0.7-2.6
					c0.2,0,0.5,0,0.7,0c0.2,0,0.5,0.1,0.7,0.2C201.1,43.2,201,44.5,200.5,45.7z"/>
			</g>
			<g id="XMLID_417_">
				<path id="XMLID_422_" class="st12" d="M188.6,66l1.5,2.6c0.7,1.2,0.4,1.4-0.7,0.5l-2.3-1.9c-1-0.9-1.7-1.9-1.5-2.2
					c0.1-0.2,0.3-0.4,0.5-0.5c0.2-0.2,0.4-0.3,0.6-0.4C187,63.9,187.9,64.8,188.6,66z"/>
				<path id="XMLID_421_" class="st12" d="M176.7,51.3l1.5,2.6c0.7,1.2,0.4,1.4-0.7,0.5l-2.3-1.9c-1-0.9-1.7-1.9-1.5-2.2
					c0.1-0.2,0.3-0.4,0.5-0.5c0.2-0.2,0.4-0.3,0.6-0.4C175.1,49.3,176,50.1,176.7,51.3z"/>
				<path id="XMLID_420_" class="st12" d="M181.2,60.4l1.7,2.4c0.8,1.1,0.5,1.4-0.6,0.6l-2.5-1.7c-1.1-0.8-1.9-1.7-1.7-2
					c0.1-0.2,0.3-0.4,0.4-0.6c0.2-0.2,0.4-0.3,0.6-0.4C179.4,58.5,180.4,59.2,181.2,60.4z"/>
				<path id="XMLID_419_" class="st12" d="M173.3,54.5l1.9,2.3c0.9,1,0.6,1.3-0.6,0.6l-2.6-1.5c-1.2-0.7-2-1.6-1.9-1.9
					c0.1-0.2,0.2-0.4,0.4-0.6c0.2-0.2,0.3-0.3,0.5-0.5C171.4,52.7,172.4,53.4,173.3,54.5z"/>
				<path id="XMLID_418_" class="st12" d="M184.5,57.9l1,2.8c0.5,1.3,0.1,1.5-0.7,0.4l-1.9-2.3c-0.9-1-1.4-2.1-1.1-2.4
					c0.2-0.2,0.4-0.3,0.6-0.4c0.2-0.1,0.4-0.2,0.7-0.3C183.3,55.7,184,56.7,184.5,57.9z"/>
			</g>
			<g id="XMLID_411_">
				<path id="XMLID_416_" class="st12" d="M184.3,72.1l2.8,1c1.3,0.5,1.2,0.8-0.2,0.8l-3,0c-1.3,0-2.5-0.3-2.6-0.7
					c0-0.2,0-0.5,0-0.7c0-0.2,0.1-0.5,0.2-0.7C181.8,71.5,183.1,71.6,184.3,72.1z"/>
				<path id="XMLID_415_" class="st12" d="M165.7,68.5l2.8,0.8c1.3,0.5,1.2,0.6-0.2,0.6h-3c-1.3,0-2.5-0.1-2.6-0.5
					c0-0.2,0-0.4,0-0.6c0-0.2,0.1-0.4,0.2-0.6C163.2,67.9,164.5,68,165.7,68.5z"/>
				<path id="XMLID_414_" class="st12" d="M165.2,73.1l2.9,0.5c1.3,0.3,1.3,0.6,0,0.9l-2.9,0.5c-1.3,0.2-2.6,0.1-2.7-0.3
					c-0.1-0.2-0.1-0.5-0.1-0.7c0-0.2,0-0.5,0.1-0.7C162.6,72.9,163.9,72.8,165.2,73.1z"/>
				<path id="XMLID_413_" class="st12" d="M176,68.6l2.6,1.5c1.2,0.7,1,1-0.3,0.8l-2.9-0.5c-1.3-0.2-2.5-0.7-2.4-1.1
					c0-0.2,0.1-0.5,0.2-0.7c0.1-0.2,0.2-0.4,0.3-0.6C173.6,67.6,174.8,67.9,176,68.6z"/>
				<path id="XMLID_412_" class="st12" d="M167.1,64.3l2.6,1.5c1.2,0.7,1,1-0.3,0.8l-3-0.5c-1.3-0.2-2.5-0.7-2.4-1.1
					c0-0.2,0.1-0.5,0.2-0.7c0.1-0.2,0.2-0.4,0.3-0.6C164.7,63.3,165.9,63.6,167.1,64.3z"/>
			</g>
			<g id="XMLID_405_">
				<path id="XMLID_410_" class="st12" d="M185,79.5l2.8-1c1.3-0.5,1.5-0.1,0.4,0.7l-2.3,1.9c-1,0.9-2.2,1.4-2.4,1.1
					c-0.2-0.2-0.3-0.4-0.4-0.6c-0.1-0.2-0.2-0.4-0.3-0.7C182.7,80.7,183.7,80,185,79.5z"/>
				<path id="XMLID_409_" class="st12" d="M168.4,88.7l2.8-1c1.3-0.5,1.5-0.1,0.4,0.7l-2.3,1.9c-1,0.9-2.2,1.4-2.4,1.1
					c-0.2-0.2-0.3-0.4-0.4-0.6c-0.1-0.2-0.2-0.4-0.3-0.7C166.1,89.9,167.2,89.2,168.4,88.7z"/>
				<path id="XMLID_408_" class="st12" d="M178.1,85.8l2.7-1.3c1.2-0.6,1.4-0.3,0.5,0.7l-2.1,2.1c-0.9,1-2,1.6-2.3,1.3
					c-0.2-0.2-0.3-0.3-0.5-0.5c-0.1-0.2-0.2-0.4-0.3-0.6C176,87.2,176.9,86.4,178.1,85.8z"/>
				<path id="XMLID_407_" class="st12" d="M171,92.6l2.6-1.5c1.2-0.7,1.4-0.4,0.5,0.7l-1.9,2.3c-0.9,1-1.9,1.7-2.2,1.5
					c-0.2-0.1-0.4-0.3-0.5-0.5c-0.2-0.2-0.3-0.4-0.4-0.6C168.9,94.1,169.8,93.2,171,92.6z"/>
				<path id="XMLID_406_" class="st12" d="M176.3,82.2l2.9-0.5c1.3-0.2,1.5,0.1,0.3,0.8L177,84c-1.2,0.7-2.4,1-2.6,0.7
					c-0.1-0.2-0.2-0.4-0.3-0.6c-0.1-0.2-0.1-0.5-0.2-0.7C173.9,83,175,82.4,176.3,82.2z"/>
			</g>
			<g id="XMLID_399_">
				<path id="XMLID_404_" class="st12" d="M190.2,84.8l1.5-2.6c0.7-1.2,1-1,0.8,0.3l-0.5,2.9c-0.2,1.3-0.8,2.5-1.1,2.4
					c-0.2,0-0.5-0.1-0.7-0.2c-0.2-0.1-0.4-0.2-0.6-0.3C189.2,87.1,189.6,85.9,190.2,84.8z"/>
				<path id="XMLID_403_" class="st12" d="M183.5,102.5l1.5-2.6c0.7-1.2,1-1,0.8,0.3l-0.5,2.9c-0.2,1.3-0.8,2.5-1.1,2.4
					c-0.2,0-0.5-0.1-0.7-0.2c-0.2-0.1-0.4-0.2-0.6-0.3C182.5,104.8,182.8,103.6,183.5,102.5z"/>
				<path id="XMLID_402_" class="st12" d="M189.1,94l1.3-2.7c0.6-1.2,0.9-1.1,0.8,0.2l-0.2,3c-0.1,1.3-0.5,2.5-0.9,2.5
					c-0.2,0-0.5,0-0.7-0.1c-0.2-0.1-0.5-0.1-0.7-0.3C188.3,96.5,188.5,95.2,189.1,94z"/>
				<path id="XMLID_401_" class="st12" d="M187.9,103.8l1.1-2.8c0.5-1.3,0.9-1.2,0.8,0.2l0,3c0,1.3-0.3,2.5-0.7,2.6
					c-0.2,0-0.5,0-0.7,0c-0.2,0-0.5-0.1-0.7-0.2C187.3,106.3,187.4,105,187.9,103.8z"/>
				<path id="XMLID_400_" class="st12" d="M179.5,100.4l1.9-2.3c0.9-1,1.2-0.8,0.7,0.4l-1,2.8c-0.5,1.3-1.2,2.3-1.5,2.2
					c-0.2-0.1-0.4-0.2-0.6-0.3c-0.2-0.1-0.4-0.3-0.6-0.4C178.1,102.5,178.7,101.4,179.5,100.4z"/>
			</g>
			<g id="XMLID_393_">
				<path id="XMLID_398_" class="st12" d="M197.6,85.4l-0.5-2.9c-0.2-1.3,0.1-1.5,0.8-0.3l1.5,2.6c0.7,1.2,1,2.4,0.7,2.6
					c-0.2,0.1-0.4,0.2-0.6,0.3c-0.2,0.1-0.5,0.1-0.7,0.2C198.4,87.9,197.9,86.8,197.6,85.4z"/>
				<path id="XMLID_397_" class="st12" d="M202.7,93.3l-0.8-2.9c-0.4-1.3,0-1.5,0.8-0.4l1.7,2.4c0.8,1.1,1.2,2.3,0.9,2.5
					c-0.2,0.1-0.4,0.3-0.6,0.4c-0.2,0.1-0.4,0.2-0.7,0.2C203.7,95.6,203,94.6,202.7,93.3z"/>
				<path id="XMLID_396_" class="st12" d="M208.1,101.5l-1-2.8c-0.4-1.3-0.1-1.5,0.8-0.4l1.9,2.3c0.9,1,1.4,2.2,1.1,2.4
					c-0.2,0.2-0.4,0.3-0.6,0.4c-0.2,0.1-0.4,0.2-0.7,0.3C209.2,103.8,208.5,102.8,208.1,101.5z"/>
				<path id="XMLID_395_" class="st12" d="M198.8,94.4l0-3c0-1.4,0.4-1.4,0.8-0.2l1,2.8c0.5,1.3,0.6,2.5,0.2,2.7
					c-0.2,0.1-0.4,0.2-0.7,0.2c-0.2,0-0.5,0.1-0.7,0C199.1,97,198.8,95.7,198.8,94.4z"/>
				<path id="XMLID_394_" class="st12" d="M199.5,104.3l0-3c0-1.4,0.4-1.4,0.9-0.2l1,2.8c0.5,1.3,0.6,2.5,0.2,2.7
					c-0.2,0.1-0.4,0.2-0.7,0.2c-0.2,0-0.5,0.1-0.7,0C199.8,106.8,199.5,105.6,199.5,104.3z"/>
			</g>
			<g id="XMLID_387_">
				<path id="XMLID_392_" class="st12" d="M220,90.9l-2.3-1.9c-1-0.9-0.8-1.2,0.4-0.7l2.8,1c1.3,0.5,2.3,1.2,2.2,1.5
					c-0.1,0.2-0.2,0.4-0.3,0.6c-0.1,0.2-0.3,0.4-0.4,0.6C222.1,92.3,221,91.7,220,90.9z"/>
				<path id="XMLID_391_" class="st12" d="M212.7,83.9l-2.4-1.7c-1.1-0.8-0.9-1.1,0.4-0.8l2.9,0.8c1.3,0.3,2.4,1,2.3,1.3
					c0,0.2-0.1,0.4-0.2,0.7c-0.1,0.2-0.2,0.4-0.4,0.6C214.9,85.1,213.8,84.7,212.7,83.9z"/>
				<path id="XMLID_390_" class="st12" d="M222.1,86.8l-2.6-1.5c-1.2-0.7-1-1,0.3-0.8l2.9,0.5c1.3,0.2,2.4,0.8,2.4,1.2
					c0,0.2-0.1,0.5-0.2,0.7c-0.1,0.2-0.2,0.4-0.3,0.6C224.4,87.8,223.2,87.4,222.1,86.8z"/>
				<path id="XMLID_389_" class="st12" d="M210.4,87.3l-1.9-2.3c-0.9-1-0.6-1.3,0.5-0.7l2.6,1.5c1.2,0.7,2.1,1.5,1.9,1.9
					c-0.1,0.2-0.2,0.4-0.4,0.6c-0.2,0.2-0.3,0.3-0.5,0.5C212.3,89,211.3,88.3,210.4,87.3z"/>
				<path id="XMLID_388_" class="st12" d="M217.3,94.4l-1.9-2.3c-0.9-1-0.6-1.3,0.6-0.7l2.6,1.5c1.2,0.7,2.1,1.5,1.9,1.9
					c-0.1,0.2-0.2,0.4-0.4,0.6c-0.1,0.2-0.3,0.3-0.5,0.5C219.2,96.1,218.1,95.4,217.3,94.4z"/>
			</g>
			<g id="XMLID_381_">
				<path id="XMLID_386_" class="st12" d="M205.7,74l-3,0c-1.4,0-1.4-0.4-0.1-0.8l2.8-1c1.3-0.5,2.5-0.6,2.7-0.2
					c0.1,0.2,0.2,0.4,0.2,0.7c0,0.2,0.1,0.5,0,0.7C208.2,73.6,207,74,205.7,74z"/>
				<path id="XMLID_385_" class="st12" d="M224.4,71l-3,0c-1.4,0-1.4-0.4-0.1-0.8l2.8-1c1.3-0.5,2.5-0.6,2.7-0.2
					c0.1,0.2,0.2,0.4,0.2,0.7c0,0.2,0.1,0.5,0,0.7C226.9,70.7,225.7,71,224.4,71z"/>
				<path id="XMLID_384_" class="st12" d="M214.3,70.4l-3,0.3c-1.3,0.1-1.4-0.2-0.2-0.8l2.7-1.3c1.2-0.6,2.4-0.8,2.6-0.5
					c0.1,0.2,0.2,0.4,0.3,0.6c0.1,0.2,0.1,0.5,0.1,0.7C216.8,69.8,215.6,70.2,214.3,70.4z"/>
				<path id="XMLID_383_" class="st12" d="M223.3,66.5l-2.9,0.5c-1.3,0.2-1.5-0.1-0.3-0.8l2.6-1.5c1.2-0.7,2.4-1,2.6-0.7
					c0.1,0.2,0.2,0.4,0.3,0.6c0.1,0.2,0.1,0.5,0.2,0.7C225.8,65.7,224.6,66.3,223.3,66.5z"/>
				<path id="XMLID_382_" class="st12" d="M224.5,75.4l-2.9-0.5c-1.3-0.2-1.3-0.6,0-0.9l2.9-0.5c1.3-0.2,2.6-0.1,2.7,0.2
					c0.1,0.2,0.1,0.5,0.1,0.7c0,0.2,0,0.5-0.1,0.7C227.1,75.5,225.9,75.7,224.5,75.4z"/>
			</g>
			<g id="XMLID_375_">
				<path id="XMLID_380_" class="st12" d="M202.5,67.2l-2.3,1.9c-1,0.9-1.3,0.6-0.7-0.6l1.5-2.6c0.7-1.2,1.6-2.1,1.9-1.9
					c0.2,0.1,0.4,0.2,0.6,0.4c0.2,0.2,0.3,0.3,0.5,0.5C204.3,65.3,203.6,66.4,202.5,67.2z"/>
				<path id="XMLID_379_" class="st12" d="M206.8,58.9l-2.1,2.1c-0.9,1-1.3,0.7-0.7-0.5l1.2-2.7c0.6-1.2,1.4-2.2,1.7-2
					c0.2,0.1,0.4,0.2,0.6,0.3c0.2,0.1,0.4,0.3,0.5,0.5C208.4,56.9,207.7,58,206.8,58.9z"/>
				<path id="XMLID_378_" class="st12" d="M211.2,50.2l-1.9,2.3c-0.9,1-1.2,0.8-0.7-0.4l1-2.8c0.5-1.3,1.2-2.3,1.6-2.2
					c0.2,0.1,0.4,0.2,0.6,0.3c0.2,0.1,0.4,0.3,0.6,0.4C212.6,48,212.1,49.1,211.2,50.2z"/>
				<path id="XMLID_377_" class="st12" d="M209.7,61.7l-2.6,1.5c-1.2,0.7-1.4,0.4-0.6-0.7l1.9-2.3c0.9-1,1.9-1.8,2.2-1.5
					c0.2,0.1,0.4,0.3,0.5,0.5c0.2,0.2,0.3,0.4,0.4,0.6C211.8,60.2,210.9,61.1,209.7,61.7z"/>
				<path id="XMLID_376_" class="st12" d="M217.9,56.2l-2.6,1.5c-1.2,0.7-1.4,0.4-0.6-0.7l1.9-2.3c0.9-1,1.9-1.8,2.2-1.5
					c0.2,0.1,0.4,0.3,0.5,0.5c0.2,0.2,0.3,0.4,0.4,0.6C220,54.6,219.1,55.5,217.9,56.2z"/>
			</g>
			<g id="XMLID_369_">
				<path id="XMLID_374_" class="st13" d="M244.3,16.2c0,6.7-5.4,12.1-12.1,12.1c-6.7,0-12.1-5.4-12.1-12.1
					c0-6.7,5.4-12.1,12.1-12.1C238.9,4.1,244.3,9.5,244.3,16.2z"/>
				<ellipse id="XMLID_373_" class="st14" cx="229.8" cy="8.4" rx="4.2" ry="2.9"/>
				<path id="XMLID_372_" class="st15" d="M231.8,8.4c0,0.8-0.8,1.4-1.9,1.4c-1,0-1.9-0.6-1.9-1.4c0-0.7,0.8-1.4,1.9-1.4
					C231,7.1,231.8,7.7,231.8,8.4z"/>
				<path id="XMLID_371_" class="st16" d="M239,11.8c0,1.3-1.1,2.4-2.4,2.4c-1.3,0-2.4-1.1-2.4-2.4c0-1.3,1.1-2.4,2.4-2.4
					C237.9,9.4,239,10.5,239,11.8z"/>
				<path id="XMLID_370_" class="st16" d="M233.4,14.2c0,0.7-0.5,1.2-1.2,1.2c-0.7,0-1.2-0.5-1.2-1.2c0-0.7,0.5-1.2,1.2-1.2
					C232.9,13,233.4,13.5,233.4,14.2z"/>
			</g>
		</g>
		<g id="XMLID_354_">
			<g id="XMLID_355_">
				<g id="XMLID_359_">
					<path id="XMLID_367_" class="st17" d="M255.2,126.7C255.2,126.7,255.2,126.7,255.2,126.7c-1.5-0.1-2.2-1.2-2.1-2.6
						c0.5-13.3-4.5-16.8-4.6-16.8c-1.2-0.7-1.6-2.3-0.8-3.5c0.7-1.2,2.4-1.6,3.6-0.9c0.7,0.4,6.7,4.7,6,21.2
						C257.2,125.5,256.6,126.7,255.2,126.7z"/>
					<g id="XMLID_360_">
						<path id="XMLID_364_" class="st18" d="M255.2,122.5L255.2,122.5c-10,0.5-12.4,8.3-12.5,8.6c-0.5,1.7,1.1,8-7.6,18.6
							c-8.6,10.6-9.3,22.3-9.3,22.3c0,26.3,26.2,26.5,30,26.4v-75.9C255.6,122.5,255.4,122.5,255.2,122.5z"/>
						<path id="XMLID_361_" class="st19" d="M276.4,149.7c-8.6-10.6-7.3-16.9-7.6-18.6c-0.1-0.3-2.4-8.1-12.5-8.6v0
							c-0.2,0-0.4,0-0.6,0v75.9c3.7,0.1,30-0.1,30-26.4C285.7,172.1,285,160.3,276.4,149.7z"/>
					</g>
				</g>
				<g id="XMLID_356_">
					<path id="XMLID_358_" class="st20" d="M284,99.7c-28-8-27.9,10.6-27.8,12C259.5,109.4,273,101.2,284,99.7L284,99.7z"/>
					<path id="XMLID_357_" class="st21" d="M256.3,111.7C256.3,111.7,256.3,111.8,256.3,111.7c13.2,16.5,27.7-11.9,27.8-12
						C272.6,101.2,259.7,109.4,256.3,111.7z"/>
				</g>
			</g>
		</g>
		<g id="XMLID_350_">
			<path id="XMLID_353_" class="st11" d="M163.5,273.8c-50.3,0-91.3-40.9-91.3-91.3c0-50.3,40.9-91.3,91.3-91.3
				c50.3,0,91.3,40.9,91.3,91.3C254.8,232.9,213.9,273.8,163.5,273.8z"/>
			<path id="XMLID_352_" class="st22" d="M245.7,182.6c0,45.4-36.8,82.2-82.2,82.2c-45.4,0-82.2-36.8-82.2-82.2
				c0-45.4,36.8-82.2,82.2-82.2C208.9,100.4,245.7,137.2,245.7,182.6z"/>
			<path id="XMLID_351_" class="st1" d="M163.5,260.2c-42.8,0-77.6-34.8-77.6-77.6c0-42.8,34.8-77.6,77.6-77.6
				c42.8,0,77.6,34.8,77.6,77.6C241.1,225.3,206.3,260.2,163.5,260.2z"/>
		</g>
		<g id="XMLID_340_">
			<path id="XMLID_347_" class="st23" d="M26.5,194.9c0,0-9.7-4.7-11-3.6c0,0-0.5,2.1,0.1,2c1.8-0.2,10,1.6,10.8,2.9
				C27.2,197.4,26.5,194.9,26.5,194.9z"/>
			<path id="XMLID_344_" class="st24" d="M46.7,180.6c12.3,0.4,21.9,10.6,21.5,22.9c-0.4,12.3-10.6,21.9-22.9,21.5
				c-12.3-0.4-21.9-10.6-21.5-22.9C24.2,189.8,34.5,180.2,46.7,180.6z"/>
			<g id="XMLID_341_">
				<path id="XMLID_343_" class="st20" d="M19.3,210.9c10-13.6-0.1-17.4-0.9-17.7C18.9,195.5,20.8,204.3,19.3,210.9L19.3,210.9z"/>
				<path id="XMLID_342_" class="st21" d="M18.4,193.2C18.4,193.2,18.3,193.2,18.4,193.2c-11.7,3.9,0.9,17.6,0.9,17.7
					C20.8,204.3,18.9,195.5,18.4,193.2z"/>
			</g>
		</g>
		<g id="XMLID_334_">
			<path id="XMLID_339_" class="st13" d="M271.2,190.4c6.2-2.4,13.2,0.6,15.7,6.9c2.4,6.2-0.6,13.2-6.9,15.7
				c-6.2,2.4-13.3-0.6-15.7-6.9C261.9,199.8,264.9,192.8,271.2,190.4z"/>
			<path id="XMLID_338_" class="st14" d="M267.6,202.8c1.5-0.6,3.4,0.7,4.2,2.9c0.8,2.2,0.3,4.4-1.2,5c-1.5,0.6-3.4-0.7-4.2-2.9
				C265.6,205.6,266.1,203.4,267.6,202.8z"/>
			<path id="XMLID_337_" class="st15" d="M268.5,204.9c0.7-0.3,1.6,0.3,1.9,1.2c0.4,1,0.1,1.9-0.6,2.2c-0.7,0.3-1.6-0.3-1.9-1.2
				C267.5,206.1,267.8,205.1,268.5,204.9z"/>
			<path id="XMLID_336_" class="st16" d="M269,196.9c1.2-0.5,2.6,0.1,3.1,1.4c0.5,1.2-0.1,2.6-1.3,3.1c-1.2,0.5-2.6-0.1-3.1-1.4
				C267.1,198.8,267.8,197.4,269,196.9z"/>
			<path id="XMLID_335_" class="st16" d="M273.2,201.3c0.6-0.2,1.3,0.1,1.6,0.7c0.2,0.6-0.1,1.3-0.7,1.6c-0.6,0.2-1.3-0.1-1.6-0.7
				C272.3,202.2,272.6,201.5,273.2,201.3z"/>
		</g>
		<g id="XMLID_328_">
			<path id="XMLID_333_" class="st13" d="M49.9,317.1c1.3-6.6,7.6-10.8,14.2-9.6c6.6,1.3,10.8,7.6,9.6,14.2
				c-1.3,6.6-7.6,10.8-14.2,9.6C52.9,330,48.7,323.6,49.9,317.1z"/>
			
				<ellipse id="XMLID_332_" transform="matrix(-0.9816 -0.1911 0.1911 -0.9816 61.5688 661.0466)" class="st14" cx="62.7" cy="327.6" rx="4.2" ry="2.9"/>
			<path id="XMLID_331_" class="st15" d="M60.7,327.1c0.1-0.7,1.1-1.2,2.1-1c1,0.2,1.7,1,1.6,1.7c-0.1,0.7-1.1,1.2-2.1,1
				C61.3,328.6,60.6,327.8,60.7,327.1z"/>
			<path id="XMLID_330_" class="st16" d="M54.3,322.4c0.3-1.3,1.5-2.1,2.8-1.9c1.3,0.2,2.2,1.5,1.9,2.8c-0.2,1.3-1.5,2.1-2.8,1.9
				C54.9,325,54,323.7,54.3,322.4z"/>
			<path id="XMLID_329_" class="st16" d="M60.2,321.1c0.1-0.7,0.8-1.1,1.4-1c0.7,0.1,1.1,0.8,1,1.4c-0.1,0.7-0.8,1.1-1.4,0.9
				C60.5,322.4,60.1,321.8,60.2,321.1z"/>
		</g>
		<path id="XMLID_327_" class="st4" d="M98.4,29.6c0,0,10.7-8.1,27.7-8.4c0,0,8.8-0.7,18.2,1.6l-10.5-0.7l4.4,5.2l-6.8-5.2
			c0,0-11.7-0.1-16.4,1.4c-4.6,1.4-0.3,0-0.3,0l10.5,3.1L112.7,24c0,0-13.1,5.5-14.5,6"/>
		<g id="XMLID_324_">
			<path id="XMLID_326_" class="st9" d="M278.8,230.9c0,0,5.5,37.1,23.8,29.7C321.4,253.1,309.1,228.9,278.8,230.9z"/>
			<path id="XMLID_325_" class="st25" d="M284.4,233.2c0,0,10.1,0.2,11.8,3.2C298.5,240.4,291.4,241,284.4,233.2z"/>
		</g>
		<g id="XMLID_321_">
			<path id="XMLID_323_" class="st9" d="M32,262.4c0,0-23.6,4.9-18.3,16.4C19.2,290.6,34.3,281.8,32,262.4z"/>
			<path id="XMLID_322_" class="st25" d="M30.7,266.1c0,0,0.2,6.5-1.6,7.7C26.6,275.4,25.9,270.9,30.7,266.1z"/>
		</g>
		<g id="XMLID_318_">
			<path id="XMLID_320_" class="st11" d="M252.9,55.5c0,0,34.6-8.3,30.1-23.4C277.7,14.5,256.2,28.4,252.9,55.5z"/>
			<path id="XMLID_319_" class="st25" d="M262.9,38.5c0,0,4-9.2,7.5-9.7C274.9,28.3,272.7,35.1,262.9,38.5z"/>
		</g>
		<g id="XMLID_315_">
			<path id="XMLID_317_" class="st11" d="M265.6,59.5c0,0,14.6,5.4,16.6-1.1C284.6,50.7,273.4,50.5,265.6,59.5z"/>
			<path id="XMLID_316_" class="st25" d="M273.4,55.8c0,0,3.7-2.4,5.1-1.7C280.2,55,277.8,56.9,273.4,55.8z"/>
		</g>
		<g id="XMLID_312_">
			<path id="XMLID_314_" class="st9" d="M60.6,40.3c0,0,1.8-20.4-7.3-20.7C42.8,19.3,46.5,33.5,60.6,40.3z"/>
			<path id="XMLID_313_" class="st25" d="M53.2,31.8c0,0-4.3-3.9-3.9-5.8C49.8,23.3,53.1,25.8,53.2,31.8z"/>
		</g>
		<g id="XMLID_309_">
			<path id="XMLID_311_" class="st9" d="M30.3,242.8c0,0-12.6-1.7-13.1,3.9C16.7,253.4,25.7,251.5,30.3,242.8z"/>
			<path id="XMLID_310_" class="st25" d="M24.8,247.2c0,0-2.5,2.6-3.7,2.3C19.4,249.1,21,247.1,24.8,247.2z"/>
		</g>
		<g id="XMLID_306_">
			<path id="XMLID_308_" class="st9" d="M56.1,66c0,0-8.1-13.3-13.8-9.4C35.7,61.2,44.3,68.3,56.1,66z"/>
			<path id="XMLID_307_" class="st25" d="M47.7,64.2c0,0-4.4-0.4-5-1.8C41.8,60.5,44.9,60.5,47.7,64.2z"/>
		</g>
		<path id="XMLID_305_" class="st26" d="M130.9,61.6c0,12-8.8,21.7-19.6,21.7c-10.8,0-19.6-9.7-19.6-21.7c0-12,8.8-21.7,19.6-21.7
			C122.1,39.9,130.9,49.7,130.9,61.6z"/>
		<path id="XMLID_304_" class="st27" d="M49.9,213.8c-0.4,3.2-4,5.4-7.9,4.9c-4-0.5-6.8-3.6-6.4-6.8c0.4-3.2,4-5.4,7.9-4.9
			C47.5,207.5,50.3,210.6,49.9,213.8z"/>
		<ellipse id="XMLID_303_" class="st28" cx="79.7" cy="243.3" rx="23.5" ry="17.1"/>
		<path id="XMLID_302_" class="st28" d="M241.1,223.7c0,9.4-10.5,17.1-23.5,17.1c-13,0-23.5-7.6-23.5-17.1
			c0-9.4,10.5-17.1,23.5-17.1C230.5,206.6,241.1,214.2,241.1,223.7z"/>
		<path id="XMLID_301_" class="st28" d="M269.5,273.3c0,4.7-5.2,8.4-11.6,8.4c-6.4,0-11.6-3.8-11.6-8.4c0-4.6,5.2-8.4,11.6-8.4
			C264.3,264.9,269.5,268.6,269.5,273.3z"/>
		<g id="XMLID_295_">
			<circle id="XMLID_300_" class="st13" cx="37.3" cy="88.8" r="12.1"/>
			<path id="XMLID_299_" class="st14" d="M39.1,80.9c0,1.6-1.9,2.9-4.2,2.9c-2.3,0-4.2-1.3-4.2-2.9c0-1.6,1.9-2.9,4.2-2.9
				C37.3,78,39.1,79.3,39.1,80.9z"/>
			<path id="XMLID_298_" class="st15" d="M36.9,81c0,0.8-0.8,1.4-1.9,1.4c-1,0-1.9-0.6-1.9-1.4c0-0.8,0.8-1.4,1.9-1.4
				C36.1,79.6,36.9,80.2,36.9,81z"/>
			<ellipse id="XMLID_297_" class="st16" cx="41.7" cy="84.4" rx="2.4" ry="2.4"/>
			<path id="XMLID_296_" class="st16" d="M38.5,86.8c0,0.7-0.5,1.2-1.2,1.2c-0.7,0-1.2-0.5-1.2-1.2c0-0.7,0.5-1.2,1.2-1.2
				C38,85.6,38.5,86.1,38.5,86.8z"/>
		</g>
		<g id="XMLID_290_">
			<path id="XMLID_294_" class="st1" d="M126.7,257.1c0,23.9-19.4,43.3-43.3,43.3c-23.9,0-43.3-19.4-43.3-43.3
				c0-23.9,19.4-43.3,43.3-43.3C107.3,213.8,126.7,233.1,126.7,257.1z"/>
			<path id="XMLID_291_" class="st10" d="M83.4,301.6c-24.6,0-44.6-20-44.6-44.6c0-24.6,20-44.6,44.6-44.6c24.6,0,44.6,20,44.6,44.6
				C127.9,281.6,107.9,301.6,83.4,301.6z M83.4,215c-23.2,0-42,18.9-42,42.1c0,23.2,18.9,42,42,42c23.2,0,42-18.9,42-42
				C125.4,233.9,106.5,215,83.4,215z"/>
		</g>
		<path id="XMLID_289_" class="st11" d="M92.8,226.6l-8.2,27c-0.7,2.4-1.9,2.4-2.6,0l-8-27.1c-0.7-2.4,0.7-5,3.1-5.4
			c2-0.3,4-0.5,6.1-0.5c2.2,0,4.3,0.2,6.4,0.6C92.2,221.6,93.6,224.2,92.8,226.6z"/>
		<path id="XMLID_288_" class="st11" d="M70.4,227.8l11.1,26c1,2.3,0.1,3.1-2,1.7L56,239.8c-2.1-1.4-2.7-4.2-1.1-6.2
			c1.3-1.5,2.8-3,4.4-4.3c1.7-1.4,3.4-2.6,5.3-3.7C66.8,224.4,69.5,225.5,70.4,227.8z"/>
		<path id="XMLID_287_" class="st11" d="M54.1,243.2l25.2,12.7c2.2,1.1,2,2.3-0.5,2.6l-28.1,3.2c-2.5,0.3-4.8-1.5-4.8-4
			c0-2,0.2-4.1,0.6-6.1c0.4-2.1,0.9-4.2,1.7-6.2C49.1,242.9,51.8,242,54.1,243.2z"/>
		<path id="XMLID_286_" class="st11" d="M51.4,265.4l27.5-6.4c2.4-0.6,3,0.4,1.3,2.3l-19.5,20.5c-1.7,1.8-4.6,1.9-6.2,0
			c-1.3-1.6-2.5-3.2-3.5-5.1c-1.1-1.9-2-3.8-2.7-5.8C47.4,268.5,49,266,51.4,265.4z"/>
		<path id="XMLID_285_" class="st11" d="M63.7,284.2l16.9-22.6c1.5-2,2.6-1.6,2.4,0.9l-1.8,28.2c-0.2,2.5-2.3,4.5-4.8,4
			c-2-0.4-4-0.9-5.9-1.6c-2-0.7-4-1.7-5.8-2.7C62.6,289.1,62.2,286.2,63.7,284.2z"/>
		<path id="XMLID_284_" class="st11" d="M85.2,290.7l-1.6-28.2c-0.1-2.5,1-2.9,2.4-0.9l16.8,22.7c1.5,2,1.1,4.9-1.1,6.2
			c-1.8,1-3.6,1.9-5.6,2.6c-2.1,0.7-4.1,1.3-6.2,1.7C87.5,295.2,85.3,293.2,85.2,290.7z"/>
		<path id="XMLID_283_" class="st11" d="M105.8,281.9l-19.3-20.6c-1.7-1.8-1.1-2.8,1.3-2.2l27.5,6.6c2.4,0.6,4,3.1,3.1,5.4
			c-0.7,1.9-1.6,3.8-2.6,5.6c-1.1,1.9-2.3,3.6-3.7,5.3C110.4,283.8,107.5,283.7,105.8,281.9z"/>
		<path id="XMLID_282_" class="st11" d="M115.9,261.8l-28-3.3c-2.5-0.3-2.7-1.4-0.4-2.6l25.3-12.6c2.3-1.1,5-0.2,5.9,2.1
			c0.7,1.9,1.2,3.9,1.6,6c0.4,2.1,0.6,4.3,0.6,6.4C120.7,260.4,118.4,262.1,115.9,261.8z"/>
		<path id="XMLID_281_" class="st11" d="M110.8,240l-23.6,15.5c-2.1,1.4-3,0.6-2-1.7l11.3-25.9c1-2.3,3.7-3.4,5.9-2.1
			c1.7,1,3.4,2.2,5,3.5c1.7,1.4,3.2,2.9,4.5,4.5C113.5,235.8,112.9,238.6,110.8,240z"/>
		<g id="XMLID_275_">
			<path id="XMLID_280_" class="st12" d="M84.3,247.1l-0.5,2.9c-0.2,1.3-0.6,1.3-0.9,0l-0.5-2.9c-0.2-1.3-0.1-2.6,0.3-2.7
				c0.2-0.1,0.5-0.1,0.7-0.1c0.2,0,0.5,0,0.7,0.1C84.4,244.5,84.5,245.8,84.3,247.1z"/>
			<path id="XMLID_279_" class="st12" d="M84.6,228.2l-0.5,2.9c-0.2,1.3-0.6,1.3-0.9,0l-0.5-2.9c-0.2-1.3-0.1-2.6,0.3-2.7
				c0.2-0.1,0.5-0.1,0.7-0.1c0.2,0,0.5,0,0.7,0.1C84.7,225.6,84.8,226.9,84.6,228.2z"/>
			<path id="XMLID_278_" class="st12" d="M80,228.5l0,3c0,1.4-0.4,1.4-0.8,0.1l-1-2.8c-0.5-1.3-0.6-2.5-0.2-2.7
				c0.2-0.1,0.4-0.2,0.7-0.2c0.2,0,0.5,0,0.7,0C79.7,225.9,80,227.1,80,228.5z"/>
			<path id="XMLID_277_" class="st12" d="M86.3,238.3l-1,2.8c-0.5,1.3-0.8,1.2-0.8-0.1l0-3c0-1.3,0.3-2.5,0.7-2.6c0.2,0,0.5,0,0.7,0
				c0.2,0,0.5,0.1,0.7,0.2C86.9,235.8,86.8,237,86.3,238.3z"/>
			<path id="XMLID_276_" class="st12" d="M89,228.8l-1,2.8c-0.5,1.3-0.8,1.2-0.8-0.1l0-3c0-1.3,0.3-2.6,0.7-2.6c0.2,0,0.5,0,0.7,0
				c0.2,0,0.5,0.1,0.7,0.2C89.6,226.3,89.5,227.5,89,228.8z"/>
		</g>
		<g id="XMLID_274_">
			<path id="XMLID_345_" class="st12" d="M77.1,249l1.5,2.6c0.7,1.2,0.4,1.4-0.7,0.5l-2.3-1.9c-1-0.9-1.7-1.9-1.5-2.2
				c0.1-0.2,0.3-0.4,0.5-0.5c0.2-0.2,0.4-0.3,0.6-0.4C75.6,247,76.4,247.9,77.1,249z"/>
			<path id="XMLID_346_" class="st12" d="M65.2,234.4l1.5,2.6c0.7,1.2,0.4,1.4-0.7,0.5l-2.3-1.9c-1-0.9-1.8-1.9-1.5-2.2
				c0.1-0.2,0.3-0.4,0.5-0.5c0.2-0.2,0.4-0.3,0.6-0.4C63.6,232.3,64.5,233.2,65.2,234.4z"/>
			<path id="XMLID_348_" class="st12" d="M69.7,243.4l1.7,2.4c0.8,1.1,0.5,1.4-0.6,0.6l-2.5-1.7c-1.1-0.8-1.9-1.7-1.7-2
				c0.1-0.2,0.3-0.4,0.4-0.6s0.4-0.3,0.6-0.4C68,241.5,68.9,242.3,69.7,243.4z"/>
			<path id="XMLID_349_" class="st12" d="M61.8,237.5l1.9,2.3c0.9,1,0.6,1.3-0.6,0.6l-2.6-1.5c-1.2-0.7-2-1.6-1.9-1.9
				c0.1-0.2,0.2-0.4,0.4-0.6c0.2-0.2,0.3-0.3,0.5-0.5C60,235.8,61,236.5,61.8,237.5z"/>
			<path id="XMLID_362_" class="st12" d="M73,241l1,2.8c0.5,1.3,0.1,1.5-0.7,0.4l-1.9-2.3c-0.9-1-1.4-2.1-1.1-2.4
				c0.2-0.2,0.4-0.3,0.6-0.4c0.2-0.1,0.4-0.2,0.7-0.3C71.8,238.7,72.5,239.7,73,241z"/>
		</g>
		<g id="XMLID_363_">
			<path id="XMLID_365_" class="st12" d="M72.8,255.1l2.8,1c1.3,0.5,1.2,0.8-0.2,0.8h-3c-1.4,0-2.6-0.3-2.6-0.7c0-0.2,0-0.5,0-0.7
				c0-0.2,0.1-0.5,0.2-0.7C70.3,254.6,71.6,254.7,72.8,255.1z"/>
			<path id="XMLID_366_" class="st12" d="M54.3,251.6l2.8,0.8c1.3,0.5,1.2,0.6-0.2,0.6h-3c-1.4,0-2.6-0.1-2.6-0.5c0-0.2,0-0.4,0-0.6
				c0-0.2,0.1-0.4,0.2-0.6C51.7,250.9,53,251.1,54.3,251.6z"/>
			<path id="XMLID_489_" class="st12" d="M53.7,256.1l2.9,0.5c1.3,0.3,1.3,0.6,0,0.9l-2.9,0.5c-1.3,0.2-2.6,0.1-2.7-0.3
				c-0.1-0.2-0.1-0.5-0.1-0.7c0-0.2,0-0.5,0.1-0.7C51.2,256,52.4,255.9,53.7,256.1z"/>
			<path id="XMLID_490_" class="st12" d="M64.5,251.6l2.6,1.5c1.2,0.7,1,1-0.3,0.8l-2.9-0.5c-1.3-0.2-2.5-0.7-2.4-1.1
				c0-0.2,0.1-0.5,0.2-0.7c0.1-0.2,0.2-0.4,0.3-0.6C62.1,250.6,63.3,251,64.5,251.6z"/>
			<path id="XMLID_492_" class="st12" d="M55.6,247.3l2.6,1.5c1.2,0.7,1,1-0.3,0.8l-2.9-0.5c-1.3-0.2-2.5-0.7-2.4-1.1
				c0-0.2,0.1-0.5,0.2-0.7c0.1-0.2,0.2-0.4,0.3-0.6C53.2,246.3,54.4,246.6,55.6,247.3z"/>
		</g>
		<g id="XMLID_493_">
			<path id="XMLID_494_" class="st12" d="M73.5,262.6l2.8-1c1.3-0.5,1.5-0.1,0.4,0.7l-2.3,1.9c-1,0.9-2.2,1.4-2.4,1.1
				c-0.2-0.2-0.3-0.4-0.4-0.6c-0.1-0.2-0.2-0.4-0.3-0.6C71.2,263.7,72.2,263,73.5,262.6z"/>
			<path id="XMLID_495_" class="st12" d="M57,271.8l2.8-1c1.3-0.5,1.5-0.1,0.4,0.8l-2.3,1.9c-1,0.9-2.2,1.4-2.4,1.1
				c-0.2-0.2-0.3-0.4-0.4-0.6c-0.1-0.2-0.2-0.4-0.3-0.7C54.7,272.9,55.7,272.2,57,271.8z"/>
			<path id="XMLID_496_" class="st12" d="M66.6,268.9l2.7-1.3c1.2-0.6,1.4-0.3,0.5,0.7l-2.1,2.1c-0.9,1-2,1.6-2.3,1.3
				c-0.2-0.2-0.3-0.3-0.5-0.5c-0.1-0.2-0.3-0.4-0.3-0.6C64.5,270.3,65.4,269.5,66.6,268.9z"/>
			<path id="XMLID_497_" class="st12" d="M59.5,275.6l2.6-1.5c1.2-0.7,1.4-0.4,0.5,0.7l-1.9,2.3c-0.9,1-1.9,1.7-2.2,1.5
				c-0.2-0.1-0.4-0.3-0.5-0.5c-0.2-0.2-0.3-0.4-0.4-0.6C57.4,277.1,58.3,276.3,59.5,275.6z"/>
			<path id="XMLID_498_" class="st12" d="M64.8,265.2l2.9-0.5c1.3-0.2,1.5,0.1,0.3,0.8l-2.6,1.5c-1.2,0.7-2.4,1-2.6,0.7
				c-0.1-0.2-0.2-0.4-0.3-0.6c-0.1-0.2-0.1-0.5-0.2-0.7C62.4,266,63.5,265.5,64.8,265.2z"/>
		</g>
		<g id="XMLID_499_">
			<path id="XMLID_500_" class="st12" d="M78.8,267.8l1.5-2.6c0.7-1.2,1-1,0.8,0.3l-0.5,2.9c-0.2,1.3-0.8,2.5-1.1,2.4
				c-0.2,0-0.5-0.1-0.7-0.2c-0.2-0.1-0.4-0.2-0.6-0.3C77.8,270.2,78.1,269,78.8,267.8z"/>
			<path id="XMLID_501_" class="st12" d="M72,285.5l1.5-2.6c0.7-1.2,1-1,0.8,0.3l-0.5,2.9c-0.2,1.3-0.8,2.5-1.1,2.4
				c-0.2,0-0.5-0.1-0.7-0.2c-0.2-0.1-0.4-0.2-0.6-0.3C71,287.9,71.3,286.7,72,285.5z"/>
			<path id="XMLID_502_" class="st12" d="M77.6,277.1l1.3-2.7c0.6-1.2,0.9-1.1,0.8,0.2l-0.2,3c-0.1,1.3-0.5,2.5-0.9,2.5
				c-0.2,0-0.5,0-0.7-0.1c-0.2-0.1-0.5-0.2-0.7-0.3C76.8,279.5,77,278.3,77.6,277.1z"/>
			<path id="XMLID_503_" class="st12" d="M76.4,286.8l1.1-2.8c0.5-1.3,0.9-1.2,0.8,0.2l0,3c0,1.3-0.3,2.5-0.7,2.6
				c-0.2,0-0.5,0-0.7,0c-0.2,0-0.5-0.1-0.7-0.2C75.8,289.3,75.9,288.1,76.4,286.8z"/>
			<path id="XMLID_504_" class="st12" d="M68,283.4l1.9-2.3c0.9-1,1.2-0.8,0.7,0.4l-1,2.8c-0.5,1.3-1.2,2.3-1.5,2.2
				c-0.2-0.1-0.4-0.2-0.6-0.3c-0.2-0.1-0.4-0.3-0.6-0.4C66.7,285.6,67.2,284.5,68,283.4z"/>
		</g>
		<g id="XMLID_505_">
			<path id="XMLID_506_" class="st12" d="M86.2,268.5l-0.5-2.9c-0.2-1.3,0.1-1.5,0.8-0.3l1.5,2.6c0.7,1.2,1,2.4,0.7,2.6
				c-0.2,0.1-0.4,0.2-0.6,0.3c-0.2,0.1-0.5,0.1-0.7,0.2C86.9,270.9,86.4,269.8,86.2,268.5z"/>
			<path id="XMLID_507_" class="st12" d="M91.2,276.3l-0.8-2.9c-0.4-1.3,0-1.5,0.8-0.4l1.7,2.4c0.8,1.1,1.2,2.3,0.9,2.5
				c-0.2,0.1-0.4,0.3-0.6,0.4c-0.2,0.1-0.4,0.2-0.7,0.2C92.2,278.7,91.6,277.6,91.2,276.3z"/>
			<path id="XMLID_508_" class="st12" d="M96.6,284.5l-1-2.8c-0.4-1.3-0.1-1.5,0.7-0.4l1.9,2.3c0.9,1,1.4,2.2,1.1,2.4
				c-0.2,0.2-0.4,0.3-0.6,0.4c-0.2,0.1-0.4,0.2-0.7,0.3C97.8,286.8,97,285.8,96.6,284.5z"/>
			<path id="XMLID_509_" class="st12" d="M87.3,277.4l0-3c0-1.3,0.4-1.4,0.8-0.1l1,2.8c0.5,1.3,0.6,2.5,0.2,2.7
				c-0.2,0.1-0.4,0.2-0.7,0.2c-0.2,0-0.5,0.1-0.7,0C87.6,280,87.3,278.8,87.3,277.4z"/>
			<path id="XMLID_510_" class="st12" d="M88,287.3l0-3c0-1.3,0.4-1.4,0.8-0.1l1,2.8c0.5,1.3,0.6,2.5,0.2,2.7
				c-0.2,0.1-0.4,0.2-0.7,0.2c-0.2,0-0.5,0.1-0.7,0C88.3,289.9,88,288.7,88,287.3z"/>
		</g>
		<g id="XMLID_511_">
			<path id="XMLID_512_" class="st12" d="M108.5,273.9l-2.3-1.9c-1-0.9-0.8-1.2,0.4-0.7l2.8,1c1.3,0.5,2.3,1.2,2.2,1.6
				c-0.1,0.2-0.2,0.4-0.3,0.6c-0.1,0.2-0.3,0.4-0.4,0.6C110.7,275.3,109.5,274.8,108.5,273.9z"/>
			<path id="XMLID_513_" class="st12" d="M101.2,267l-2.4-1.7c-1.1-0.8-0.9-1.1,0.4-0.8l2.9,0.8c1.3,0.3,2.4,1,2.3,1.3
				c0,0.2-0.1,0.5-0.2,0.7c-0.1,0.2-0.2,0.4-0.4,0.6C103.4,268.2,102.3,267.7,101.2,267z"/>
			<path id="XMLID_514_" class="st12" d="M110.6,269.8l-2.6-1.5c-1.2-0.7-1-1,0.3-0.8l2.9,0.5c1.3,0.2,2.5,0.8,2.4,1.2
				c0,0.2-0.1,0.5-0.2,0.7c-0.1,0.2-0.2,0.4-0.3,0.6C112.9,270.8,111.7,270.5,110.6,269.8z"/>
			<path id="XMLID_515_" class="st12" d="M98.9,270.3l-1.9-2.3c-0.9-1-0.6-1.3,0.5-0.7l2.6,1.5c1.2,0.7,2.1,1.5,1.9,1.9
				c-0.1,0.2-0.2,0.4-0.4,0.6c-0.2,0.2-0.3,0.3-0.5,0.5C100.8,272.1,99.8,271.4,98.9,270.3z"/>
			<path id="XMLID_516_" class="st12" d="M105.8,277.4l-1.9-2.3c-0.9-1-0.6-1.3,0.5-0.7l2.6,1.5c1.2,0.7,2.1,1.5,1.9,1.9
				c-0.1,0.2-0.2,0.4-0.4,0.6c-0.1,0.2-0.3,0.3-0.5,0.5C107.7,279.2,106.6,278.5,105.8,277.4z"/>
		</g>
		<g id="XMLID_517_">
			<path id="XMLID_518_" class="st12" d="M94.2,257l-3,0c-1.3,0-1.4-0.4-0.1-0.8l2.8-1c1.3-0.5,2.5-0.6,2.7-0.2
				c0.1,0.2,0.2,0.4,0.2,0.7c0,0.2,0.1,0.5,0,0.7C96.7,256.7,95.5,257,94.2,257z"/>
			<path id="XMLID_519_" class="st12" d="M112.9,254l-3,0c-1.3,0-1.4-0.4-0.1-0.8l2.8-1c1.3-0.5,2.5-0.6,2.7-0.2
				c0.1,0.2,0.2,0.4,0.2,0.7c0,0.2,0.1,0.5,0,0.7C115.4,253.7,114.2,254,112.9,254z"/>
			<path id="XMLID_520_" class="st12" d="M102.8,253.4l-3,0.3c-1.3,0.1-1.4-0.2-0.2-0.8l2.7-1.3c1.2-0.6,2.4-0.8,2.6-0.5
				c0.1,0.2,0.2,0.4,0.3,0.6c0.1,0.2,0.1,0.5,0.1,0.7C105.3,252.8,104.1,253.3,102.8,253.4z"/>
			<path id="XMLID_521_" class="st12" d="M111.8,249.5l-2.9,0.5c-1.3,0.2-1.5-0.1-0.3-0.8l2.6-1.5c1.2-0.7,2.4-1,2.6-0.7
				c0.1,0.2,0.2,0.4,0.3,0.6c0.1,0.2,0.1,0.5,0.2,0.7C114.3,248.8,113.1,249.3,111.8,249.5z"/>
			<path id="XMLID_522_" class="st12" d="M113.1,258.5l-2.9-0.5c-1.3-0.2-1.3-0.6,0-0.9l2.9-0.5c1.3-0.2,2.6-0.1,2.7,0.2
				c0.1,0.2,0.1,0.5,0.1,0.7c0,0.2,0,0.5-0.1,0.7C115.6,258.6,114.4,258.7,113.1,258.5z"/>
		</g>
		<g id="XMLID_523_">
			<path id="XMLID_524_" class="st12" d="M91,250.3l-2.3,1.9c-1,0.9-1.3,0.6-0.7-0.6l1.5-2.6c0.7-1.2,1.6-2,1.9-1.9
				c0.2,0.1,0.4,0.2,0.6,0.4c0.2,0.2,0.3,0.3,0.5,0.5C92.8,248.4,92.1,249.4,91,250.3z"/>
			<path id="XMLID_525_" class="st12" d="M95.3,242l-2.1,2.1c-1,1-1.3,0.7-0.7-0.5l1.2-2.7c0.6-1.2,1.4-2.2,1.7-2
				c0.2,0.1,0.4,0.2,0.6,0.3c0.2,0.1,0.4,0.3,0.5,0.5C96.9,239.9,96.3,241,95.3,242z"/>
			<path id="XMLID_526_" class="st12" d="M99.7,233.2l-1.9,2.3c-0.9,1-1.2,0.8-0.7-0.4l1-2.8c0.5-1.3,1.2-2.3,1.6-2.2
				c0.2,0.1,0.4,0.2,0.6,0.3c0.2,0.1,0.4,0.3,0.6,0.4C101.2,231.1,100.6,232.2,99.7,233.2z"/>
			<path id="XMLID_527_" class="st12" d="M98.3,244.8l-2.6,1.5c-1.2,0.7-1.4,0.4-0.6-0.7l1.9-2.3c0.9-1,1.9-1.8,2.2-1.5
				c0.2,0.1,0.4,0.3,0.5,0.5c0.2,0.2,0.3,0.4,0.4,0.6C100.3,243.2,99.4,244.1,98.3,244.8z"/>
			<path id="XMLID_528_" class="st12" d="M106.4,239.3l-2.6,1.5c-1.2,0.7-1.4,0.4-0.6-0.7l1.9-2.3c0.9-1,1.9-1.8,2.2-1.5
				c0.2,0.1,0.4,0.3,0.5,0.5c0.2,0.2,0.3,0.4,0.4,0.6C108.5,237.7,107.6,238.6,106.4,239.3z"/>
		</g>
		<g id="XMLID_529_">
			<g id="XMLID_530_">
				<path id="XMLID_531_" class="st3" d="M279.4,299.5c-2.3,1.6-4.7,3-7.3,4.2c-8.7,4.1-19.1,5.7-31.1,3.5l1.2-8.7l0.4-2.8l4.8-35.6
					l5.5,1.4l0.2,0.1l7.7,2l0,0l29.5,7.7l2,0.5l7.2,1.9C295.1,283.7,288.4,293.1,279.4,299.5z"/>
				<path id="XMLID_532_" class="st4" d="M279.4,299.5c-2.3,1.6-4.7,3-7.2,4.2L252,264.8l-1.1-2.1l1.9-1l0.3-0.1l7.7,2L279.4,299.5z
					"/>
			</g>
			<path id="XMLID_533_" class="st1" d="M275.3,291.7c-2.3,1.5-4.8,2.8-7.4,3.9c-7.6,3.2-16.1,4.4-24.7,3.1c-0.3,0-0.7-0.1-1-0.2
				l0.4-2.8l3.4-25c-0.3,0,0.6-5.9,0.6-5.9c0,0.1,0.1,0.2,0.1,0.3l0.7-5l5.5,1.4l0.2,0.1l7.7,2l0,0l29.5,7.7l2,0.5
				C288.6,280.1,282.6,286.9,275.3,291.7z"/>
			<path id="XMLID_534_" class="st11" d="M274.1,289.4c-2.4,1.5-4.9,2.8-7.5,3.8c-7.1,2.8-14.9,3.9-22.7,2.7
				c-0.5-0.1-0.9-0.1-1.4-0.2c0,0,4.1-30.7,4.1-30.6l0.7-5l5.5,1.4l0.2,0.1l7.7,2l0,0l29.5,7.7C286.6,278.9,281,285.1,274.1,289.4z"
				/>
			<path id="XMLID_535_" class="st2" d="M260.8,268.8c0,0-4.6,4-1.8,5.6C261.8,275.9,262.2,271.6,260.8,268.8z"/>
			<path id="XMLID_536_" class="st2" d="M251.1,274.9c0,0-4.6,4-1.8,5.6C252.1,282.1,252.4,277.8,251.1,274.9z"/>
			<path id="XMLID_537_" class="st2" d="M255.3,285.1c0,0-4.6,4-1.8,5.6C256.2,292.2,256.6,287.9,255.3,285.1z"/>
			<path id="XMLID_538_" class="st2" d="M266,280.3c0,0-4.6,4-1.8,5.6C267,287.4,267.3,283.1,266,280.3z"/>
			<path id="XMLID_539_" class="st2" d="M274.6,273.3c0,0-4.6,4-1.8,5.6C275.5,280.4,275.9,276.1,274.6,273.3z"/>
		</g>
		<g id="XMLID_540_">
			<g id="XMLID_541_">
				<path id="XMLID_542_" class="st29" d="M251.8,77.7c0,0,0-3.8,3.7-6c0,0,5.1,2,4.2,6.3c0,0,2.9-0.8,6.5,1.5c0,0,1.3,0.5,1.8-0.6
					c0,0-0.6,6.4-5,6.5l-0.3,0.1c0,0,1.3,1.2,0.7,4.2c-0.6,3,1.3,3.2,1.3,3.2s-7.8,1.5-8.3-3.1c0,0-2.1,2.5-4.3,2.2
					c-2.1-0.2-1.4,2.5-1.4,2.5s-4.6-4.1-0.6-8.7c0,0-2.7-1.6-3.1-3.8c-0.3-2.2-2.1-2.4-2.1-2.4S247.1,76.9,251.8,77.7z"/>
				<path id="XMLID_543_" class="st30" d="M252.3,78.3c0,0,0.1-3.7,3.4-5.7c0,0,4.5,2,3.7,6c0,0,2.6-0.7,5.9,1.4
					c0,0,1.6,1.2,2.1,0.3c0,0-1,4.9-5,5.1l-0.3,0.1c0,0,1.1,1.1,0.6,3.8c-0.6,2.7,0.6,3.5,0.6,3.5s-6.5,0.8-7-3.4c0,0-1.9,2.2-3.8,2
					c-1.9-0.2-2.3,2.4-2.3,2.4s-3.2-3.9,0.4-8c0,0-2.5-1.5-2.8-3.4c-0.3-2-2-2.7-2-2.7S248,77.5,252.3,78.3z"/>
				<path id="XMLID_544_" class="st31" d="M254.8,82.4c0,0,1.5,0.8,1.3-0.7l0.6,0c0,0,0,1.4,1.3,1c0,0-1.5,0.9-0.3,1.8l-0.5,0
					c0,0-0.6-1.2-1.5-0.1l-0.4-0.2c0,0,0.6-1.2-0.8-1.5L254.8,82.4z"/>
				<path id="XMLID_545_" class="st32" d="M255.8,72.2"/>
				<g id="XMLID_546_">
					<g id="XMLID_547_">
						<path id="XMLID_548_" class="st31" d="M256.8,81c0,0.9-0.2,1.6-0.5,1.6c-0.3,0-0.5-0.7-0.5-1.6c0-0.9,0.2-1.6,0.5-1.6
							C256.6,79.3,256.8,80.1,256.8,81z"/>
						<ellipse id="XMLID_549_" class="st33" cx="256.4" cy="81" rx="0.3" ry="1.1"/>
					</g>
					<g id="XMLID_550_">
						<path id="XMLID_551_" class="st31" d="M255.5,85.7c-0.4,0.8-0.9,1.3-1.2,1.2c-0.2-0.1-0.1-0.9,0.3-1.7
							c0.4-0.8,0.9-1.3,1.2-1.2C256.1,84.1,255.9,84.9,255.5,85.7z"/>
						<path id="XMLID_552_" class="st33" d="M255.4,85.6c-0.3,0.5-0.6,0.9-0.8,0.8c-0.2-0.1-0.1-0.6,0.2-1.1
							c0.3-0.5,0.6-0.9,0.8-0.8C255.8,84.6,255.7,85.1,255.4,85.6z"/>
					</g>
					<g id="XMLID_553_">
						<path id="XMLID_554_" class="st31" d="M253.9,82c0.9,0.3,1.5,0.7,1.4,1c-0.1,0.2-0.8,0.2-1.7-0.1c-0.9-0.3-1.5-0.7-1.4-1
							C252.3,81.7,253.1,81.7,253.9,82z"/>
						<path id="XMLID_555_" class="st33" d="M253.9,82.1c0.6,0.2,1,0.5,0.9,0.6c-0.1,0.2-0.6,0.2-1.1,0c-0.6-0.2-1-0.5-0.9-0.6
							C252.8,81.9,253.3,82,253.9,82.1z"/>
					</g>
					<g id="XMLID_556_">
						<path id="XMLID_557_" class="st31" d="M259,83.5c-0.9,0-1.6-0.1-1.6-0.4c0-0.3,0.7-0.5,1.6-0.5c0.9,0,1.6,0.1,1.6,0.4
							C260.7,83.2,259.9,83.4,259,83.5z"/>
						<path id="XMLID_558_" class="st33" d="M259,83.3c-0.6,0-1.1-0.1-1.1-0.3c0-0.2,0.5-0.3,1.1-0.4c0.6,0,1.1,0.1,1.1,0.3
							C260.1,83.1,259.6,83.3,259,83.3z"/>
					</g>
					<g id="XMLID_559_">
						<path id="XMLID_560_" class="st31" d="M258.3,85.3c0.4,0.8,0.6,1.5,0.3,1.7c-0.2,0.1-0.8-0.4-1.2-1.2
							c-0.4-0.8-0.6-1.5-0.4-1.7C257.4,84,257.9,84.5,258.3,85.3z"/>
						<path id="XMLID_561_" class="st33" d="M258.2,85.4c0.3,0.5,0.4,1,0.2,1.1c-0.2,0.1-0.5-0.3-0.8-0.8c-0.3-0.5-0.4-1-0.2-1.1
							C257.6,84.5,257.9,84.9,258.2,85.4z"/>
					</g>
				</g>
				<path id="XMLID_562_" class="st31" d="M255.5,71.7c0,0,0.6,1.9,1,3.9c0,0.2,0.1,0.5,0.1,0.7c0,0.2,0.1,0.5,0.1,0.7
					c0,0.2,0,0.5,0,0.7c0,0.2,0,0.4,0,0.6c0,0.2,0,0.4,0,0.5c0,0.2,0,0.3,0,0.4c0,0.2-0.1,0.4-0.1,0.4l-0.3-0.1c0,0,0-0.1,0.1-0.3
					c0-0.1,0-0.2,0.1-0.4c0-0.2,0-0.3,0-0.5c0-0.2,0-0.4,0-0.6c0-0.2,0-0.4,0-0.7c0-0.2,0-0.5-0.1-0.7c0-0.2,0-0.5-0.1-0.7
					c-0.1-1-0.3-2-0.5-2.7C255.7,72.2,255.5,71.7,255.5,71.7z"/>
				<path id="XMLID_563_" class="st31" d="M244.8,79.8c0,0,0.1-0.1,0.3-0.1c0.1,0,0.2-0.1,0.4-0.1c0.2,0,0.3,0,0.5,0
					c0.2,0,0.4,0,0.6,0c0.2,0,0.5,0,0.7,0.1c0.2,0,0.5,0.1,0.7,0.2c0.1,0,0.2,0.1,0.4,0.1l0.4,0.1l0.4,0.1c0.1,0.1,0.2,0.1,0.4,0.2
					c0.2,0.1,0.5,0.2,0.7,0.3c0.2,0.1,0.4,0.2,0.6,0.3c0.2,0.1,0.4,0.2,0.5,0.3c0.3,0.2,0.6,0.4,0.8,0.5c0.2,0.1,0.3,0.2,0.3,0.2
					l-0.2,0.3c0,0-0.1-0.1-0.3-0.2c-0.2-0.1-0.4-0.3-0.8-0.5c-0.2-0.1-0.3-0.2-0.5-0.3c-0.2-0.1-0.4-0.2-0.6-0.3
					c-0.2-0.1-0.4-0.2-0.6-0.3c-0.1-0.1-0.2-0.1-0.3-0.2l-0.4-0.1l-0.4-0.1c-0.1,0-0.2-0.1-0.4-0.1c-0.2-0.1-0.5-0.1-0.7-0.2
					c-0.2,0-0.5-0.1-0.7-0.1c-0.2,0-0.4,0-0.6,0c-0.2,0-0.4,0-0.5,0c-0.2,0-0.3,0-0.4,0.1C245,79.7,244.8,79.8,244.8,79.8z"/>
				<path id="XMLID_564_" class="st31" d="M254.5,86.8c0,0-0.6,0.3-1.4,0.7c-0.4,0.2-0.9,0.5-1.3,0.9c-0.2,0.2-0.5,0.4-0.7,0.6
					c-0.2,0.2-0.4,0.5-0.5,0.7c-0.1,0.3-0.2,0.6-0.3,0.9c-0.1,0.3-0.1,0.6-0.2,0.9c0,0.3,0,0.6,0,0.9c0,0.3,0,0.5,0.1,0.8
					c0,0.2,0.1,0.4,0.1,0.6c0.1,0.2,0.1,0.3,0.2,0.5c0.1,0.1,0.1,0.2,0.2,0.3c0,0.1,0.1,0.1,0.1,0.1s0,0-0.1-0.1
					c0-0.1-0.1-0.1-0.2-0.3c-0.1-0.1-0.1-0.3-0.2-0.5c-0.1-0.2-0.1-0.4-0.2-0.6c0-0.2-0.1-0.5-0.1-0.8c0-0.3,0-0.6,0-0.9
					c0-0.3,0.1-0.6,0.1-0.9c0.1-0.3,0.2-0.6,0.3-0.9c0.1-0.3,0.3-0.6,0.5-0.8c0.2-0.2,0.4-0.4,0.7-0.6c0.5-0.4,0.9-0.7,1.3-1
					c0.8-0.5,1.4-0.8,1.4-0.8L254.5,86.8z"/>
				<path id="XMLID_565_" class="st31" d="M258.5,86.8C258.5,86.8,258.6,86.8,258.5,86.8c0.1,0.2,0.1,0.2,0.2,0.4
					c0,0.1,0,0.3,0.1,0.4c0,0.2,0.1,0.4,0.2,0.5c0.1,0.2,0.1,0.4,0.2,0.6c0.1,0.1,0.1,0.2,0.2,0.3c0.1,0.1,0.1,0.2,0.2,0.3
					c0.1,0.2,0.3,0.4,0.5,0.7c0.2,0.2,0.4,0.4,0.6,0.6c0.2,0.2,0.4,0.4,0.6,0.6c0.2,0.2,0.4,0.3,0.7,0.5c0.2,0.1,0.4,0.3,0.7,0.4
					c0.2,0.1,0.4,0.2,0.6,0.3c0.1,0,0.2,0.1,0.3,0.1c0.1,0,0.2,0.1,0.3,0.1c0.2,0.1,0.3,0.1,0.4,0.2c0.2,0.1,0.4,0.1,0.4,0.1
					s-0.1,0-0.4-0.1c-0.1,0-0.3-0.1-0.4-0.1c-0.1,0-0.2-0.1-0.3-0.1c-0.1,0-0.2-0.1-0.3-0.1c-0.2-0.1-0.4-0.2-0.6-0.3
					c-0.2-0.1-0.4-0.2-0.7-0.4c-0.2-0.1-0.4-0.3-0.7-0.5c-0.2-0.2-0.4-0.4-0.7-0.5c-0.2-0.2-0.4-0.4-0.6-0.6
					c-0.2-0.2-0.4-0.4-0.5-0.7c-0.1-0.1-0.1-0.2-0.2-0.3c-0.1-0.1-0.1-0.2-0.2-0.3c-0.1-0.2-0.2-0.4-0.3-0.6
					c-0.1-0.2-0.1-0.4-0.2-0.6c0-0.2-0.3-0.3-0.3-0.5c0-0.1-0.2-0.2-0.2-0.3c0-0.1,0-0.1,0-0.1L258.5,86.8z"/>
				<path id="XMLID_566_" class="st31" d="M260.3,82.8c0,0,0.6,0,1.4-0.2c0.8-0.1,1.9-0.4,3-0.8c0.5-0.2,1-0.4,1.5-0.7
					c0.4-0.3,0.8-0.6,1.1-0.9c0.1-0.2,0.3-0.3,0.4-0.4c0.1-0.1,0.2-0.3,0.2-0.4c0.1-0.1,0.1-0.2,0.1-0.3c0-0.1,0-0.1,0-0.1
					s0,0,0,0.1c0,0.1-0.1,0.2-0.1,0.3c-0.1,0.1-0.1,0.2-0.2,0.4c-0.1,0.1-0.2,0.3-0.3,0.5c-0.3,0.3-0.6,0.7-1.1,0.9
					c-0.4,0.3-0.9,0.6-1.5,0.8c-1,0.4-2.1,0.7-3,0.9c-0.8,0.2-1.4,0.2-1.4,0.2L260.3,82.8z"/>
				<path id="XMLID_567_" class="st32" d="M256.7,83.3c0,0.2-0.1,0.3-0.3,0.3c-0.2,0-0.3-0.1-0.3-0.3c0-0.2,0.1-0.3,0.3-0.3
					C256.6,83,256.7,83.1,256.7,83.3z"/>
			</g>
		</g>
		<g id="XMLID_568_">
			<g id="XMLID_569_">
				<g id="XMLID_570_">
					<path id="XMLID_571_" class="st34" d="M174.6,287.7c-2.5,13.5,3.1,39.5,16.6,42c0.3,0.1,0.6,0.1,0.9,0.1l10.2-54.9
						C188.8,272.4,177.1,274.2,174.6,287.7z"/>
					<path id="XMLID_572_" class="st35" d="M223.6,296.8c2.5-13.6-7.8-19.4-21.3-21.9l-10.2,54.9
						C205.5,331.3,221.2,310.1,223.6,296.8z"/>
				</g>
				<g id="XMLID_573_">
					<g id="XMLID_574_">
						<path id="XMLID_575_" class="st36" d="M194.8,321.7c-0.3,1.6-1.1,2.7-1.7,2.6c-0.7-0.1-1-1.5-0.7-3.1c0.3-1.6,1.1-2.7,1.7-2.6
							C194.8,318.8,195.1,320.2,194.8,321.7z"/>
					</g>
					<g id="XMLID_576_">
						<path id="XMLID_577_" class="st36" d="M211.1,283.1c-0.3,1.6-1.1,2.7-1.7,2.6c-0.7-0.1-1-1.5-0.7-3.1c0.3-1.6,1.1-2.7,1.7-2.6
							C211.1,280.2,211.4,281.5,211.1,283.1z"/>
					</g>
					<g id="XMLID_578_">
						<path id="XMLID_579_" class="st36" d="M208.8,295c-0.3,1.6-1.1,2.7-1.7,2.6c-0.7-0.1-1-1.5-0.7-3.1c0.3-1.6,1.1-2.7,1.7-2.6
							C208.8,292.1,209.1,293.5,208.8,295z"/>
					</g>
					<g id="XMLID_580_">
						<path id="XMLID_581_" class="st36" d="M206.7,307.3c-0.3,1.6-1.1,2.7-1.7,2.6c-0.7-0.1-1-1.5-0.7-3.1c0.3-1.6,1.1-2.7,1.7-2.6
							C206.7,304.4,207,305.8,206.7,307.3z"/>
					</g>
					<g id="XMLID_582_">
						<path id="XMLID_583_" class="st36" d="M204.4,319.3c-0.3,1.6-1.1,2.7-1.7,2.6c-0.7-0.1-1-1.5-0.7-3.1c0.3-1.6,1.1-2.7,1.7-2.6
							C204.4,316.4,204.7,317.8,204.4,319.3z"/>
					</g>
					<g id="XMLID_584_">
						<path id="XMLID_585_" class="st36" d="M219.3,287.6c0,1.6-0.5,2.9-1.2,2.9c-0.7,0-1.3-1.3-1.3-2.9c0-1.6,0.5-2.9,1.2-2.9
							C218.7,284.8,219.3,286,219.3,287.6z"/>
					</g>
					<g id="XMLID_586_">
						<path id="XMLID_587_" class="st36" d="M219.2,299.1c-0.5,1.5-1.4,2.6-2,2.4c-0.6-0.2-0.8-1.6-0.3-3.1c0.5-1.5,1.4-2.6,2-2.4
							C219.5,296.2,219.6,297.6,219.2,299.1z"/>
					</g>
					<g id="XMLID_588_">
						<path id="XMLID_589_" class="st36" d="M214,312c-0.6,1.5-1.5,2.5-2.2,2.3c-0.6-0.2-0.7-1.6-0.1-3.1c0.6-1.5,1.5-2.5,2.2-2.3
							C214.5,309.1,214.6,310.6,214,312z"/>
					</g>
					<g id="XMLID_590_">
						<path id="XMLID_591_" class="st36" d="M201.5,285.5c-0.3,1.6-1.1,2.7-1.7,2.6c-0.7-0.1-1-1.5-0.7-3.1c0.3-1.6,1.1-2.7,1.7-2.6
							C201.5,282.6,201.8,283.9,201.5,285.5z"/>
					</g>
					<path id="XMLID_592_" class="st36" d="M199.2,297.4c-0.3,1.6-1.1,2.7-1.7,2.6c-0.7-0.1-1-1.5-0.7-3.1c0.3-1.6,1.1-2.7,1.7-2.6
						C199.2,294.5,199.5,295.9,199.2,297.4z"/>
					<g id="XMLID_593_">
						<path id="XMLID_594_" class="st36" d="M197.1,309.7c-0.3,1.6-1.1,2.7-1.7,2.6c-0.7-0.1-1-1.5-0.7-3.1c0.3-1.6,1.1-2.7,1.7-2.6
							C197.1,306.8,197.4,308.2,197.1,309.7z"/>
					</g>
					<path id="XMLID_595_" class="st36" d="M192.9,280.1c-0.3,1.6-1.1,2.7-1.7,2.6c-0.7-0.1-1-1.5-0.7-3.1c0.3-1.6,1.1-2.7,1.7-2.6
						C192.8,277.2,193.1,278.5,192.9,280.1z"/>
					<path id="XMLID_596_" class="st36" d="M190.6,292c-0.3,1.6-1.1,2.7-1.7,2.6c-0.7-0.1-1-1.5-0.7-3.1c0.3-1.6,1.1-2.7,1.7-2.6
						C190.6,289.1,190.9,290.5,190.6,292z"/>
					<path id="XMLID_597_" class="st36" d="M188.5,304.4c-0.3,1.6-1.1,2.7-1.7,2.6c-0.7-0.1-1-1.5-0.7-3.1c0.3-1.6,1.1-2.7,1.7-2.6
						C188.5,301.4,188.8,302.8,188.5,304.4z"/>
					<g id="XMLID_598_">
						<path id="XMLID_599_" class="st36" d="M186.1,316.3c-0.3,1.6-1.1,2.7-1.7,2.6c-0.7-0.1-1-1.5-0.7-3.1c0.3-1.6,1.1-2.7,1.7-2.6
							C186.1,313.4,186.4,314.8,186.1,316.3z"/>
					</g>
					<path id="XMLID_600_" class="st36" d="M183,282.4c-0.4,1.5-1.3,2.6-2,2.5c-0.7-0.2-0.8-1.6-0.4-3.1c0.4-1.5,1.3-2.6,1.9-2.5
						C183.2,279.4,183.4,280.8,183,282.4z"/>
					<g id="XMLID_601_">
						<path id="XMLID_602_" class="st36" d="M180.5,293.8c-0.2,1.6-0.8,2.8-1.5,2.8c-0.7-0.1-1.1-1.4-0.9-3c0.2-1.6,0.8-2.8,1.5-2.8
							C180.3,290.9,180.7,292.2,180.5,293.8z"/>
					</g>
					<g id="XMLID_603_">
						<path id="XMLID_604_" class="st36" d="M180,305.7c0.1,1.6-0.3,2.9-1,3c-0.7,0.1-1.3-1.2-1.5-2.8c-0.1-1.6,0.3-2.9,1-3
							C179.2,302.9,179.8,304.1,180,305.7z"/>
					</g>
					<path id="XMLID_605_" class="st21" d="M218.4,276c0.1-0.1,0.2,0,0.2,0c0,0,0,0,0,0h0c0,0,0-0.2,0-0.2l-6.9-1.1
						c-0.1-0.6-0.5-1.8-1.7-2.8c-1.6-1.4-4-2.3-5-2c-0.1,0-0.2,0.1-0.4,0.1c0,0,0,0-0.1,0c0,0,0,0-0.1,0c-0.5,0.2-1,0.6-1.3,1
						c-0.1-0.1-0.3-0.2-0.4-0.2c0,0,0.1,0,0.1,0c-0.1-0.1-0.3-0.2-0.5-0.2c0,0,0,0,0,0c-0.1,0-0.1,0-0.2-0.1c0,0-0.1,0-0.1-0.1
						c0,0,0,0,0.1,0c-0.3-0.3-0.7-0.5-1.2-0.6c0,0,0,0-0.1,0c0,0-0.1,0-0.1,0c-0.8-0.2-1.6-0.4-2.5-0.3c-0.1,0-0.2,0-0.3,0
						c-0.4,0-0.8,0.1-1.5,0.3c-0.3,0.1-0.7,0.2-1,0.4l-0.3,0.1c-0.3,0.1-0.5,0.2-0.7,0.4c-0.2,0.1-0.3,0.2-0.4,0.3l-6.2-0.8
						c0,0,0,0,0,0l0,0c0,0,0,0,0,0c0,0,0,0.1,0.1,0.2c0.2,0.5,1.1,1.9,2.4,3.2c-0.7,0-1.3-0.2-1.8-0.1c-1,0.2-1.6,0.3-1.6,0.3h0
						c0,0,0,0,0,0h0c0,0,0,0.5,0,0.5l0,0l0,0v0c0,0,0.1,0,0.2,0c0.1,0,0.1,0,0.2,0c0.3,0,0.6,0.1,1.1,0.3c0.7,0.2,1.6,0.7,2.6,1.2
						c0.3,0.1,0.5,0.3,0.8,0.4c0.7,0.3,1.5,0.6,2.4,0.8c1.2,0.1,1.9,0.2,2.8,0c1.7-0.4,2.8-1.1,3.3-1.1c0,0,0,0,0,0c0,0,0-0.1,0-0.1
						c0.4-0.3,1-0.7,1.6-1c-1.1,1-1.9,1.6-1.8,2.3c0,0,0,0,0,0c0,0,0,0,0,0c0.1,0.4,1.1,1.8,1.7,3.3c0.2,0.4,0.3,0.7,0.3,1.1
						l-0.2,2.2l0,0.3l0,0l0,0h0v-0.5c0,0,0,0.5,0,0.5l0,0c0,0,0,0,0,0c0,0,0,0,0,0c0.1,0,0.6-0.2,1.1-0.4c0.7-0.2,1.7-1,2.5-1.9
						c0.9-1,1.6-2.3,2-3.4c0.5,0.2,1,0.3,1.6,0.4c1,0.3,2.7,0.7,4.3,0.3c0.2-0.1,0.5-0.1,0.7-0.2c0.1-0.1,0.2-0.1,0.4-0.2
						c1-0.5,1.6-1.1,2.1-1.6c0.1-0.1,0.2-0.2,0.4-0.3c0,0,0,0,0.1-0.1c0.1-0.1,0.1-0.1,0.2-0.2c0,0,0.1-0.1,0.1-0.1
						c0.3-0.2,0.5-0.4,0.7-0.5c0,0,0,0.1,0,0C218.3,276,218.3,276,218.4,276z M187.8,270.4L187.8,270.4
						C187.8,270.4,187.8,270.4,187.8,270.4L187.8,270.4z"/>
				</g>
			</g>
		</g>
		<g id="XMLID_608_">
			<g id="XMLID_609_">
				<g id="XMLID_610_">
					<path id="XMLID_611_" class="st37" d="M245.4,121.9c0-0.5-0.2-1-0.5-1.4c0.3,0.1,0.7,0.5,0.7,1.1c0,0.2,0,0.6,0,1
						c-0.1,0-0.2,0.1-0.3,0.1C245.4,122.4,245.5,122.2,245.4,121.9z"/>
					<path id="XMLID_612_" class="st37" d="M245.4,122.7c-0.3,0.1-0.7,0.3-1.1,0.5c0-0.3-0.3-2.3,0.3-2.6c0.1-0.1,0.3-0.1,0.4,0
						c0.3,0.4,0.4,0.9,0.5,1.4C245.5,122.2,245.4,122.4,245.4,122.7z"/>
					<path id="XMLID_613_" class="st37" d="M213.8,77.1c0.5,0,2.3,0,3,0.2C215.8,77.8,214.9,77.4,213.8,77.1z"/>
					<path id="XMLID_614_" class="st37" d="M213.8,77.1c0,0.8,0.1,1.5,0.1,2.2C213.8,78.6,213.7,78.1,213.8,77.1z"/>
					<path id="XMLID_615_" class="st37" d="M216.8,79.3c-0.7-0.2-2.2,0.2-2.9,0c0,0,0-0.1,0-0.1c-0.1-0.6-0.1-1.3-0.1-2.2
						c1.2,0.4,2.1,0.7,3,0.2C216.8,78,216.8,78.7,216.8,79.3z"/>
				</g>
				<g id="XMLID_616_">
					<path id="XMLID_617_" class="st38" d="M220.6,97c0.7,4.4,3.4,12,6.9,15c5.2,4.4,7.3,4.6,14.4,6.5c1.8,0.5,3.4,1.8,3.4,3.4
						c0.1,1.8-2.2,4.7-5.4,5.3c-5.7,0.9-4.6,0.8-10.9,0.3c-6.3-0.5-11.2-2.8-14.7-5.9c-3.5-3.1-5.7-7-7.3-11.5
						c-0.6-1.9-2.1-7.9-1.2-13.3c0.7-5.3,2.6-10.5,7.3-13c1.8-1,0.5-2.3,0.5-6.8c1.2,0.4,2.1,0.7,3,0.2c0.2,3.9-0.8,4.7,0.7,8.2
						C218.6,88,220.1,93.7,220.6,97z"/>
					<path id="XMLID_618_" class="st37" d="M244.3,123.2c0.2,0.4,0.6,0.4,0.8,0.3c0.7-0.4,0.6-1.5,0.6-1.9c-0.1-0.9-0.6-1.3-1.1-1.1
						C244,120.8,244.2,122.9,244.3,123.2C244.3,123.2,244.3,123.2,244.3,123.2z"/>
					<g id="XMLID_619_">
						<path id="XMLID_620_" class="st37" d="M216.8,77.2c0,0.8,0,1.5,0,2.1c-0.7-0.2-2.2,0.2-2.9,0c-0.1-0.7-0.2-1.1-0.1-2.2
							C214.3,77,216.1,77.1,216.8,77.2z"/>
					</g>
				</g>
				<path id="XMLID_621_" class="st39" d="M209.5,98.5c0.6,8.7,3.1,14.2,9.8,20c4.8,4.1,19.2,7.2,24.9,4.6c0,0,0,0,0,0.1
					c0.2,0.4,0.5,0.4,0.8,0.3c-0.8,1.6-2.7,3.3-5,3.7c-5.7,0.9-4.6,0.8-10.9,0.3c-6.3-0.5-11.2-2.8-14.7-5.9
					c-3.5-3.1-5.7-7-7.3-11.5c-0.6-1.9-2.1-7.9-1.2-13.3c0.7-5.3,2.6-10.5,7.3-13c0.2-0.1,0.3-0.2,0.4-0.3l0,0
					C213.7,83.6,208.9,88.8,209.5,98.5z"/>
			</g>
		</g>
		<g id="XMLID_622_">
			<path id="XMLID_623_" class="st40" d="M143.1,145.9c0.4,0.2,0.9,0.5,1.4,0.9c2.4,2.1,3.7,3.2,3.7,3.7c0,0.5-0.2,0.5-0.6,0.5H127
				v12.4c2,3.4,4.8,6.6,8.9,9.5c4.7,3.3,9,5.3,12.7,6.1c0,0.5,0,0.8-0.1,0.9c-1,0.5-1.7,1.1-2.1,1.8c-0.2,0.7-0.4,1.3-0.6,1.9
				c-0.1,0.5-0.3,0.8-0.6,0.8c-2.5,0-6.7-3.3-12.5-9.8c-2.2-2.7-3.7-5.5-5.7-8.5v9.9c0,6,0.2,10.2,0.3,12.6c0,0.9-1.2,1.4-3.6,1.4
				c-1.2,0-1.8-0.3-1.8-1c0.1-2.1,0.2-6.5,0.2-13.1v-4.2c-6,6.8-13.4,11.5-20.7,14.3c-0.1-0.2-0.3-0.4-0.5-0.7
				c8.6-5.1,16.2-12.4,21.2-22V151h-7.8c-6.1,0-9.9,0.4-11.4,0.9c-0.3-1-0.7-1.7-1.2-2.6c2.5,0.3,6.8,0.7,12.8,0.7h7.6v-3.1
				c0-1.7-0.2-3.4-0.4-5.1c1.8,0.2,3.7,0.5,5.7,0.9c1.5,0.2,2.2,0.6,2.2,1.1c0,0.3-0.3,0.6-0.9,0.7c-1,0.4-1.5,0.7-1.5,0.9v4.7h11.8
				c1.8-2,3-3.6,3.7-4.1C142.7,145.9,142.9,145.8,143.1,145.9z M110.5,153.9c4.5,1.4,6.8,2.3,6.8,2.7c0,0.7-0.9,1.1-2.7,1.2
				c-0.4,1-0.8,2-1.2,2.8c0.9,0.2,1.6,0.5,2.3,0.9c2.1,1.1,3.2,2.4,3.2,3.9c0,1.2-0.4,2.1-1,2.6c-0.4,0.3-1,0.5-1.8,0.5
				c-1,0-1.7-0.8-2-2.3c-0.4-1.4-0.8-2.4-1.3-3.1c-0.1-0.2-0.3-0.4-0.4-0.6c-2.6,4.9-5.7,8.7-9.2,11.3c-0.3-0.3-0.6-0.5-0.9-0.6
				C106.2,168.2,108.9,161.7,110.5,153.9z M135.8,153.8c4.6,1.5,6.8,2.3,6.8,2.7c0,0.7-0.9,1.1-2.7,1.2c-0.5,1.1-1,2-1.5,2.9
				c4.8,1.7,7.3,3.6,7.4,5.7c0,1.5-0.3,2.5-0.8,3.1c-0.4,0.4-0.9,0.7-1.7,0.7c-0.7,0-1.4-1-2.2-3c-0.9-1.9-2.1-3.6-3.6-5.1
				c-1.7,2.6-3.6,4.7-5.8,6.2c-0.3-0.2-0.6-0.4-0.9-0.5C133.2,164,134.8,159.4,135.8,153.8z"/>
			<path id="XMLID_627_" class="st40" d="M186.4,141.9l4.6,2.1h23.1c1.4-2,2.4-2.8,2.9-2.8c0.5,0,1.5,0.5,3,1.5
				c1.3,1,1.9,1.7,1.9,2.1c0,0.3-0.5,0.6-1.1,0.9c-1,0.6-0.9,1-1.9,1.2v7.8c1,3,0.5,5,0.5,6c0,1.2-0.7,1.8-2.5,1.9
				c-1.4,0-1.9-0.4-1.9-1.1V160h-14.6c-0.4,1-1,1.8-1.8,2.5c-0.7,0.9-1.4,1.5-2.2,2.5h22.9c1.4-1,2.4-2.2,2.9-2.2
				c0.5,0.1,1.4,0.6,2.7,1.5c1.5,1.1,2.2,1.8,2.2,2.2c0,0.5-0.5,1-1.6,1.7c-0.4,0.3-0.6,0.8-0.6,1.5c-0.4,6.3-1,11.3-1.9,15.2
				c-0.9,3.4-3.3,5.2-7.2,5.2c-0.6,0-1-0.5-1.2-1.4c-0.2-0.5-0.6-1-1.3-1.5c-1.1-0.8-2.7-1.4-4.8-1.5c0.1-0.1,0.1-0.5,0.1-1
				c2,0.1,3.6,0.2,5,0.2c3.2,0,4.9-1,5.2-3.4c0.8-3.2,1.3-8.5,1.3-14.5h-25.3c-1.6,1-3.2,2.6-5,3.8c2.6,0.5,4.1,0.9,4.4,1.5
				c0,0.4-0.2,0.7-0.8,1c-1,0.5-1.3,0.7-1.3,0.9v7.9h18.7c0.8-1,1.4-1.8,1.7-2.2c-0.6-0.4-1.2-1-2-1.8c-1.9-1.6-3.8-2.9-5.7-3.8
				c-0.8,0.8-1.6,1.6-2.4,2.3c-2.1,1.9-4.6,3.5-7.3,4.8c0-0.1-0.2-0.3-0.5-0.6c5-4.6,7.9-9.1,8.9-13.4c4.6,1.3,7,2.3,7,2.9
				c0,0.4-1,0.8-3.1,1.1c-0.4,0.6-0.9,1.2-1.4,1.7c6.2,0.9,9.3,2.2,9.3,4.1c0,0.5-0.1,1-0.3,1.4c-0.1,0.4-0.4,0.7-0.9,1
				c0.3,0.2,0.6,0.5,1,0.8c1,0.9,1.5,1.5,1.6,1.9c0,0.5-0.1,0.8-0.3,0.8H192v2.3c0,1-1.2,1.5-3.2,1.5c-1.2,0-1.8-0.3-1.8-0.9
				c0.1-3.7,0.1-7.9,0.1-12.6c0-0.4-0.1-0.7-0.1-1c-2.4,1.4-5,2.7-7.8,3.9c-0.3-0.4-0.5-0.6-0.6-0.8c7.3-4.6,12.4-9.4,15.3-14.3
				c0.3-0.4,0.5-1.2,0.6-1.2H192v0.8c0,1.2-1.4,1.8-3.3,1.8c-1.2,0-1.8-0.2-2-0.6c0-3.3,0.3-6.4,0.3-9.4v-6.2
				C187,143.7,186.6,142.4,186.4,141.9z M192,151h23v-6h-23V151z M192,159h23v-7h-23V159z"/>
			<g id="XMLID_631_">
				<path id="XMLID_632_" class="st41" d="M176.8,165.8c0,0.1-0.5-0.1-1-0.4c-0.5-0.3-0.9-0.6-0.9-0.7c0-0.1,0.5,0.1,1,0.4
					C176.4,165.4,176.8,165.7,176.8,165.8z"/>
				<path id="XMLID_633_" class="st41" d="M174.6,158.6c0-0.1,0.4-0.5,0.9-0.9c0.6-0.5,1.1-0.8,1.1-0.7c0,0.1-0.4,0.5-0.9,0.9
					C175.2,158.3,174.7,158.6,174.6,158.6z"/>
				<g id="XMLID_634_">
					<path id="XMLID_635_" class="st41" d="M175.5,151.8L175.5,151.8c-5.9-4.1-14.1-2.6-18.1,3.3c-4.1,5.9-2.6,14.1,3.3,18.2l0,0
						c5.9,4.1,14,2.6,18.1-3.3C182.9,164,181.4,155.9,175.5,151.8z"/>
					<path id="XMLID_636_" class="st41" d="M173.8,161.8c0,0.1-0.3,0.1-0.7,0.1c-0.4,0-0.7-0.1-0.7-0.2c0-0.1,0.3-0.1,0.7-0.1
						C173.5,161.6,173.8,161.7,173.8,161.8z"/>
					<path id="XMLID_637_" class="st41" d="M172.9,159c0,0.1-0.2,0.3-0.4,0.5c-0.3,0.2-0.6,0.4-0.6,0.3c0-0.1,0.2-0.3,0.4-0.5
						C172.6,159.1,172.9,159,172.9,159z"/>
					<path id="XMLID_638_" class="st11" d="M166.3,162.7c0,0-7.1,1.3-7.7,1.7c0,0-1.4,1-0.3,2.6c1,1.5,2.5,4,4.2,2.2
						c1.7-1.9,4.2-5.6,4.2-5.6S167,162.5,166.3,162.7z"/>
					<path id="XMLID_639_" class="st11" d="M166.7,161.2c0,0-7.7-2.7-7.9-2.6c-0.2,0.1-2.1,1.1-1.2,3.9c0,0,0,1.7,2.5,1
						c2.5-0.6,6.7-1.3,6.9-1.5C167.1,161.8,167.1,161.4,166.7,161.2z"/>
					<path id="XMLID_640_" class="st11" d="M167.1,160.7c0.3-0.4,0-0.8-0.3-1.3c-0.3-0.5-4.2-5.3-4.7-5.6c-0.5-0.2-1.9,0.7-2.3,1.2
						c-0.4,0.5-2.5,2.9-0.3,3.3C161.8,158.8,166.7,161.3,167.1,160.7z"/>
					<path id="XMLID_641_" class="st11" d="M167.8,160c0,0,0.5,0.4,0.6-2.1c0.2-1.3,0.6-6.1-0.5-6.3c-1.1-0.3-5.9,0.7-4.8,2.4
						C164.1,155.7,167.4,159.9,167.8,160z"/>
					<path id="XMLID_642_" class="st11" d="M168.7,159.8c0,0,0.4-7.3,0.6-7.8c0.2-0.5,1.4-0.2,1.7-0.2c0.3,0,3.3,0.9,2.3,2.2
						C172.4,155.3,169.2,160.7,168.7,159.8z"/>
					<path id="XMLID_643_" class="st41" d="M166.8,156.7c-0.1,0,0,0.3,0.2,0.6c0.1,0.3,0.3,0.6,0.4,0.5c0.1,0,0-0.3-0.2-0.6
						C167,156.9,166.8,156.7,166.8,156.7z"/>
					<path id="XMLID_644_" class="st41" d="M169.5,156.6c-0.1,0-0.2,0.2-0.3,0.6c-0.1,0.3-0.1,0.6-0.1,0.6c0.1,0,0.2-0.2,0.3-0.6
						C169.6,156.9,169.6,156.6,169.5,156.6z"/>
					<path id="XMLID_645_" class="st41" d="M166.2,160.9c0-0.1-0.2-0.2-0.6-0.3c-0.3-0.1-0.6-0.1-0.6-0.1c0,0.1,0.2,0.2,0.6,0.3
						C165.9,160.9,166.2,161,166.2,160.9z"/>
					<path id="XMLID_646_" class="st41" d="M164.9,158c0,0,0.1,0.3,0.4,0.5c0.3,0.2,0.5,0.4,0.5,0.4c0,0-0.1-0.3-0.4-0.5
						C165.2,158.1,165,157.9,164.9,158z"/>
					<path id="XMLID_647_" class="st41" d="M165.9,163.4c-0.1-0.1-0.4,0.1-0.8,0.5c-0.4,0.3-0.6,0.7-0.6,0.8
						c0.1,0.1,0.4-0.1,0.8-0.5C165.7,163.8,165.9,163.5,165.9,163.4z"/>
					
						<ellipse id="XMLID_648_" transform="matrix(-0.1939 -0.981 0.981 -0.1939 48.3624 349.8964)" class="st41" cx="167.9" cy="155.1" rx="0.7" ry="0.1"/>
					<path id="XMLID_649_" class="st41" d="M163.4,158.7c0,0.1,0.2,0.3,0.6,0.5c0.4,0.2,0.7,0.3,0.7,0.2c0-0.1-0.2-0.3-0.6-0.5
						C163.7,158.8,163.4,158.7,163.4,158.7z"/>
					<path id="XMLID_650_" class="st41" d="M162.2,155.4c-0.1,0.1,0.3,0.4,0.7,0.8c0.4,0.4,0.8,0.6,0.9,0.6c0.1-0.1-0.3-0.4-0.7-0.8
						C162.6,155.6,162.2,155.3,162.2,155.4z"/>
					<path id="XMLID_651_" class="st41" d="M163.9,164c0-0.1-0.5,0.2-1.1,0.6c-0.6,0.4-1,0.8-1,0.9c0,0.1,0.5-0.2,1.1-0.6
						C163.5,164.4,164,164.1,163.9,164z"/>
					<path id="XMLID_652_" class="st41" d="M163.8,166.1c0,0-0.5,0.4-0.9,0.9c-0.4,0.5-0.8,1-0.7,1.1c0,0,0.5-0.4,0.9-0.9
						C163.6,166.7,163.9,166.2,163.8,166.1z"/>
					<path id="XMLID_653_" class="st41" d="M162.4,160.1c0-0.1-0.5-0.2-1.3-0.3c-0.7-0.1-1.3-0.1-1.3,0c0,0.1,0.6,0.2,1.3,0.3
						C161.8,160.1,162.4,160.2,162.4,160.1z"/>
					<path id="XMLID_654_" class="st41" d="M161.7,161.7c0-0.1-0.4-0.1-0.9,0c-0.5,0-1,0.1-1,0.2c0,0.1,0.4,0.1,0.9,0
						C161.2,161.9,161.7,161.8,161.7,161.7z"/>
					<path id="XMLID_655_" class="st41" d="M163.9,161.6c0-0.1-0.4-0.2-0.9-0.3c-0.5-0.1-1-0.2-1-0.1c0,0.1,0.4,0.2,0.9,0.3
						C163.4,161.6,163.8,161.6,163.9,161.6z"/>
					<path id="XMLID_656_" class="st41" d="M169.4,154.9c0.1,0,0.3-0.5,0.5-1.2c0.2-0.7,0.3-1.2,0.3-1.3c-0.1,0-0.3,0.5-0.5,1.2
						C169.5,154.3,169.3,154.9,169.4,154.9z"/>
					<path id="XMLID_657_" class="st41" d="M170.2,155.7c0.1,0,0.3-0.5,0.5-1.2c0.2-0.7,0.3-1.2,0.3-1.3c-0.1,0-0.3,0.5-0.5,1.2
						C170.2,155.1,170.1,155.7,170.2,155.7z"/>
					<path id="XMLID_658_" class="st41" d="M165.9,153.1c-0.1,0,0,0.6,0.2,1.3c0.2,0.7,0.4,1.2,0.5,1.2c0.1,0,0-0.6-0.2-1.3
						C166.2,153.6,166,153,165.9,153.1z"/>
					<path id="XMLID_659_" class="st11" d="M168.1,164c0,0,1.3,7.3,1.2,8.1c0,0-0.5,1.7-2.4,1.2c-1.9-0.5-4.8-1-3.6-3.3
						c1.2-2.4,3.9-6.1,3.9-6.1S168,163.2,168.1,164z"/>
					<path id="XMLID_660_" class="st11" d="M169.4,163.5c0,0,5.5,6.5,5.4,6.8c0,0.3-0.3,2.5-3.3,2.6c0,0-1.6,0.6-1.9-2
						c-0.3-2.6-1.2-7-1.1-7.3C168.7,163.3,169.2,163.2,169.4,163.5z"/>
					<path id="XMLID_661_" class="st11" d="M169.7,163c0.2-0.4,0.7-0.2,1.3-0.1c0.6,0.1,6.5,2,6.9,2.4c0.4,0.4,0,2.1-0.3,2.6
						c-0.3,0.5-1.8,3.4-3,1.4C173.4,167.3,169.4,163.6,169.7,163z"/>
					<path id="XMLID_662_" class="st11" d="M170.1,161c0,0,7-3,7.4-3.4c0.4-0.4-0.3-1.5-0.4-1.7c-0.1-0.2-2-2.9-3-1.5
						C173.1,155.8,169.1,160.9,170.1,161z"/>
					<path id="XMLID_663_" class="st10" d="M176,151L176,151c-6.2-4-14.6-2.4-18.9,3.8c-4.3,6.2-2.8,14.6,3.2,19.1l0,0
						c6.2,4,14.6,2.3,18.9-3.8C183.4,163.9,181.9,156,176,151z M178.4,169.7c-4,5.8-11.9,7.3-17.8,3.5l0,0
						c-5.6-4.2-6.9-12.1-2.9-17.8c4-5.8,11.9-7.3,17.8-3.5C181.1,156,182.4,163.9,178.4,169.7z"/>
					<path id="XMLID_666_" class="st41" d="M170,163.9c0,0,0.3,0.2,0.5,0.5c0.2,0.3,0.3,0.6,0.3,0.6c-0.1,0-0.3-0.2-0.5-0.5
						C170,164.2,169.9,163.9,170,163.9z"/>
					
						<ellipse id="XMLID_667_" transform="matrix(0.8955 0.4451 -0.4451 0.8955 90.9419 -59.7385)" class="st41" cx="172.7" cy="163.8" rx="0.7" ry="0.1"/>
					<path id="XMLID_668_" class="st41" d="M167.6,165.1c0.1,0,0,0.5-0.2,1c-0.2,0.5-0.4,0.9-0.5,0.8c-0.1,0,0-0.5,0.2-1
						C167.3,165.4,167.5,165.1,167.6,165.1z"/>
					<path id="XMLID_669_" class="st41" d="M173.1,165.8c-0.1,0.1-0.3-0.1-0.7-0.4c-0.3-0.3-0.5-0.6-0.5-0.6
						c0.1-0.1,0.4,0.1,0.7,0.4C172.9,165.5,173.1,165.7,173.1,165.8z"/>
					<path id="XMLID_670_" class="st41" d="M168,171.1c-0.1,0-0.1-0.5-0.1-1.1c0-0.6,0.1-1.1,0.2-1.1c0.1,0,0.1,0.5,0.1,1.1
						C168.2,170.6,168.1,171.1,168,171.1z"/>
					<path id="XMLID_671_" class="st41" d="M167.8,167.2c0.1,0,0,0.6-0.2,1.3c-0.2,0.7-0.4,1.3-0.5,1.2c-0.1,0,0-0.6,0.2-1.3
						C167.5,167.7,167.7,167.2,167.8,167.2z"/>
					<path id="XMLID_672_" class="st41" d="M165.7,168.1c0.1,0-0.2,0.6-0.6,1.2c-0.4,0.6-0.7,1.1-0.8,1.1c-0.1,0,0.2-0.6,0.6-1.2
						C165.3,168.5,165.7,168,165.7,168.1z"/>
					<path id="XMLID_673_" class="st41" d="M172.1,167.2c0.1,0,0.4,0.5,0.7,1.1c0.3,0.7,0.5,1.2,0.5,1.2c-0.1,0-0.4-0.5-0.7-1.1
						C172.3,167.8,172,167.3,172.1,167.2z"/>
					<path id="XMLID_674_" class="st41" d="M170.8,168.5c0.1,0,0.2,0.4,0.4,0.9c0.2,0.5,0.2,1,0.2,1c0,0-0.2-0.4-0.4-0.9
						C170.8,169,170.7,168.6,170.8,168.5z"/>
					<path id="XMLID_675_" class="st41" d="M170.1,166.4c0-0.1,0.3,0.3,0.6,0.7c0.3,0.5,0.5,0.9,0.5,0.9c0,0.1-0.3-0.3-0.6-0.7
						C170.3,166.9,170.1,166.4,170.1,166.4z"/>
					<path id="XMLID_676_" class="st41" d="M173.5,158.1c0-0.1,0.4-0.5,1-0.9c0.6-0.5,1.1-0.8,1.1-0.7c0,0.1-0.4,0.5-0.9,0.9
						C174.1,157.8,173.6,158.2,173.5,158.1z"/>
					<path id="XMLID_677_" class="st11" d="M170.3,162c0,0-0.6-0.3,1.8-1.4c1.2-0.6,5.7-2.8,6.3-1.8c0.7,1,1.5,6-0.6,5.6
						C175.7,164.1,170.5,162.3,170.3,162z"/>
				</g>
				<path id="XMLID_678_" class="st41" d="M175.7,159.9c0,0.1-0.3,0.2-0.7,0.3c-0.4,0.1-0.8,0.1-0.8,0c0-0.1,0.3-0.2,0.7-0.3
					C175.4,159.8,175.7,159.9,175.7,159.9z"/>
				<path id="XMLID_679_" class="st41" d="M177.7,161.3c0,0.1-0.6,0.2-1.3,0.2c-0.7,0.1-1.3,0-1.3,0c0-0.1,0.6-0.2,1.3-0.2
					C177.1,161.2,177.7,161.2,177.7,161.3z"/>
			</g>
		</g>
		<g id="XMLID_680_">
			<path id="XMLID_681_" class="st42" d="M119.1,220.4c-2.4,0-4.3-0.9-5.9-2.8l2.2-5.5c2.5,1.5,3.3,1.7,3.7,1.7c1,0,1.9-0.3,2.6-1
				c0.7-0.7,1.2-1.5,1.2-2.4v-7.6l-3.2-0.2l-1-4.3l4.2-0.1V198l3,0v0l0.3,0l3.4-0.1l-0.3,5.1l-3.2-0.1l0,0.5
				c0.5,4.9,0.7,8.1,0.8,9.5c0.1,2.1-0.6,3.8-2.2,5.3c-1.5,1.4-3.3,2.1-5.3,2.1L119.1,220.4z"/>
			<path id="XMLID_682_" class="st42" d="M148.7,220l0.1-3.6l-0.8,0.7c-1.1,1-2.4,1.5-3.8,1.6c-0.1,0-0.3,0-0.4,0
				c-1.7,0-3.1-0.6-4.4-1.8c-1.4-1.3-2.1-3-2.2-5c-0.1-2.6,0.2-5.4,1-8.2l5.8,0.6c-0.1,0.5-0.3,1.2-0.6,2.1
				c-0.4,1.8-0.6,3.2-0.6,4.3c0,1,0.3,1.9,0.8,2.6c0.6,0.9,1.4,1.3,2.4,1.3l0.1,0c1.3-0.1,2.3-0.8,2.8-2l0.1-0.1V205h5.7l-2.7,15.5
				L148.7,220z"/>
			<path id="XMLID_683_" class="st42" d="M165.2,220l-3.2-14l8.1-0.9l-2.3,15H165.2z M166.1,204c-1.1,0-2-0.4-2.8-1.2
				c-0.8-0.8-1.2-1.7-1.2-2.8c0-1.1,0.4-2.1,1.2-2.8c0.8-0.8,1.7-1.2,2.8-1.2c1.1,0,2.1,0.4,2.8,1.2c0.8,0.8,1.2,1.7,1.2,2.8
				c0,1.1-0.4,2-1.2,2.8C168.1,203.6,167.2,204,166.1,204z"/>
			<path id="XMLID_686_" class="st42" d="M186.9,222c-2.5,0-4.7-0.9-6.5-2.7c-1.8-1.8-2.7-3.9-2.7-6.4c0-2.5,0.9-4.7,2.7-6.4
				c1.8-1.8,4-2.7,6.5-2.7c1.3,0,2.6,0.3,3.8,0.8l-2.2,7.5c-0.5-0.2-1-0.3-1.5-0.3c-1.1,0-2.1,0.4-2.9,1.2c-0.8,0.8-1.2,1.7-1.2,2.8
				c0,1.1,0.4,2,1.2,2.8c0.8,0.8,1.7,1.2,2.9,1.2c0.4,0,0.8-0.1,1.2-0.2l0.7,2.2C188.1,221.9,187.5,222,186.9,222z"/>
			<path id="XMLID_687_" class="st42" d="M205.7,221.2c-2,0-3.9-0.6-5.5-1.9c-1.6-1.2-2.6-2.9-3.1-4.9c-0.1-0.6-0.2-1.3-0.2-1.9
				c0-2,0.7-3.8,1.9-5.4c1.3-1.6,3-2.7,5-3.1c0.7-0.1,1.3-0.2,1.9-0.2c2,0,3.9,0.6,5.5,1.9c1.6,1.3,2.7,2.9,3.1,4.9
				c0.2,0.7,0.2,1.5,0.2,2.5l-12,3.5l0.3,0.5c0.7,1.4,1.9,2.1,3.5,2.1c0.6,0,1.3-0.1,1.8-0.4l2.2,1.3
				C209,220.8,207.4,221.2,205.7,221.2z M206.4,210.2c-1.1,0-2.1,0.4-2.9,1.2c-0.8,0.8-1.1,1.8-1,2.9l0,0.6l7.5-2.5l-0.3-0.5
				C208.9,210.8,207.8,210.2,206.4,210.2z"/>
		</g>
	</g>
</g>
</svg>
