<?xml version="1.0" encoding="utf-8"?>
<!-- Generator: Adobe Illustrator 16.0.0, SVG Export Plug-In . SVG Version: 6.00 Build 0)  -->
<!DOCTYPE svg PUBLIC "-//W3C//DTD SVG 1.1//EN" "http://www.w3.org/Graphics/SVG/1.1/DTD/svg11.dtd">
<svg version="1.1" id="圖層_1" xmlns="http://www.w3.org/2000/svg" xmlns:xlink="http://www.w3.org/1999/xlink" x="0px" y="0px"
	 width="132.667px" height="94.865px" viewBox="0 0 132.667 94.865" enable-background="new 0 0 132.667 94.865"
	 xml:space="preserve">
<path fill="#473421" d="M97.316,54.906c0,0-2.62,0.452-2.475-0.565C94.986,53.323,96.627,54.034,97.316,54.906z"/>
<path fill="#473421" d="M96.982,57.5c0,0-2.413,1.114-2.537,0.094S96.091,56.835,96.982,57.5z"/>
<path fill="#473421" d="M97.331,60.091c0,0-2.042,1.701-2.425,0.747C94.522,59.885,96.299,59.68,97.331,60.091z"/>
<g>
	<path fill="#FFB52B" d="M14.081,70.453c0,0-13.307,2.74-10.287,9.216C6.898,86.325,15.416,81.375,14.081,70.453z"/>
	<path opacity="0.6" fill="#FFFFFF" d="M13.356,72.532c0,0,0.138,3.648-0.927,4.333C11.031,77.765,10.681,75.21,13.356,72.532z"/>
</g>
<g>
	<path fill="#FF602B" d="M113.457,32.798c0,0,19.515-4.661,16.954-13.163C127.408,9.667,115.321,17.525,113.457,32.798z"/>
	<path opacity="0.6" fill="#FFFFFF" d="M119.053,23.205c0,0,2.26-5.203,4.214-5.447C125.831,17.436,124.604,21.251,119.053,23.205z"
		/>
</g>
<g>
	<path fill="#FF602B" d="M120.596,35.045c0,0,8.219,3.071,9.365-0.638C131.305,30.057,125.001,29.958,120.596,35.045z"/>
	<path opacity="0.6" fill="#FFFFFF" d="M124.969,32.93c0,0,2.09-1.337,2.858-0.948C128.836,32.492,127.46,33.576,124.969,32.93z"/>
</g>
<g>
	<path fill="#FFB52B" d="M16.077,36.28c0,0-7.433-8.812-11.136-5.303C0.601,35.094,7.756,39.267,16.077,36.28z"/>
	<path opacity="0.6" fill="#FFFFFF" d="M9.708,35.885c0,0-3.254,0.185-3.884-0.756C4.996,33.896,7.271,33.541,9.708,35.885z"/>
</g>
<g>
	<path fill="#FFB52B" d="M13.118,59.406c0,0-7.125-0.951-7.362,2.222C5.479,65.347,10.531,64.273,13.118,59.406z"/>
	<path opacity="0.6" fill="#FFFFFF" d="M10.013,61.894c0,0-1.424,1.449-2.109,1.279C7.005,62.952,7.906,61.833,10.013,61.894z"/>
</g>
<g>
	<g>
		<path fill="#FF602B" d="M65.216,94.865c-26.153,0-47.431-21.279-47.431-47.434C17.785,21.278,39.063,0,65.216,0
			c26.155,0,47.433,21.278,47.433,47.431C112.648,73.585,91.371,94.865,65.216,94.865z"/>
		<circle fill="#C9DD8E" cx="65.217" cy="47.431" r="42.705"/>
		<path fill="#F9F7EF" d="M65.216,87.773c-22.243,0-40.34-18.096-40.34-40.342c0-22.243,18.097-40.34,40.34-40.34
			c22.245,0,40.341,18.097,40.341,40.34C105.557,69.677,87.46,87.773,65.216,87.773z"/>
	</g>
	<g>
		<g>
			<path d="M54.678,28.962c0.204,0.094,0.415,0.227,0.635,0.399c1.112,0.94,1.668,1.535,1.668,1.786c0,0.22-0.094,0.329-0.282,0.329
				h-9.307v5.452c0.83,1.566,2.177,3.009,4.042,4.324c2.146,1.505,4.065,2.43,5.758,2.773c0,0.221-0.016,0.361-0.047,0.424
				c-0.47,0.22-0.792,0.494-0.964,0.822c-0.079,0.313-0.172,0.596-0.282,0.848c-0.063,0.234-0.157,0.352-0.282,0.352
				c-1.144,0-3.032-1.48-5.664-4.443c-0.987-1.206-1.841-2.49-2.562-3.854v4.488c0.047,2.727,0.086,4.639,0.117,5.736
				c0,0.422-0.549,0.633-1.646,0.633c-0.532,0-0.798-0.156-0.798-0.469c0.046-0.955,0.078-2.945,0.093-5.97v-1.905
				c-2.977,3.072-6.119,5.234-9.425,6.488c-0.063-0.079-0.141-0.181-0.235-0.306c3.917-2.304,7.137-5.634,9.66-9.989v-5.405h-3.596
				c-2.758,0-4.481,0.102-5.17,0.306c-0.141-0.438-0.329-0.854-0.564-1.246c1.144,0.156,3.079,0.235,5.805,0.235h3.525v-1.363
				c-0.047-0.784-0.118-1.552-0.212-2.304c0.815,0.111,1.669,0.244,2.563,0.4c0.658,0.109,0.987,0.273,0.987,0.493
				c0,0.157-0.141,0.259-0.424,0.306c-0.454,0.172-0.681,0.305-0.681,0.4v2.067h5.358c0.799-1.003,1.363-1.614,1.692-1.833
				C54.521,28.939,54.6,28.947,54.678,28.962z M39.871,32.605c2.069,0.658,3.104,1.066,3.104,1.223c0,0.297-0.408,0.486-1.223,0.563
				c-0.188,0.47-0.376,0.901-0.564,1.292c0.392,0.11,0.736,0.244,1.035,0.4c0.971,0.502,1.457,1.097,1.457,1.786
				c-0.016,0.564-0.165,0.956-0.446,1.175c-0.173,0.143-0.439,0.212-0.8,0.212c-0.455,0-0.76-0.353-0.917-1.058
				c-0.188-0.643-0.384-1.112-0.587-1.41c-0.063-0.094-0.126-0.18-0.188-0.259c-1.175,2.226-2.57,3.934-4.184,5.124
				c-0.141-0.126-0.274-0.211-0.4-0.26C37.928,39.093,39.166,36.162,39.871,32.605z M51.364,32.558
				c2.068,0.658,3.103,1.065,3.103,1.223c0,0.297-0.408,0.485-1.222,0.563c-0.204,0.485-0.432,0.925-0.682,1.316
				c2.177,0.769,3.305,1.638,3.384,2.608c0,0.658-0.125,1.121-0.376,1.388c-0.172,0.204-0.431,0.305-0.775,0.305
				c-0.298,0-0.627-0.454-0.988-1.363c-0.392-0.86-0.932-1.637-1.622-2.326c-0.768,1.19-1.653,2.124-2.655,2.796
				c-0.142-0.094-0.275-0.172-0.4-0.234C50.197,37.188,50.941,35.095,51.364,32.558z"/>
			<g>
				<path d="M76.295,27.355l2.051,0.812h9.938c0.608-0.747,1.025-1.13,1.253-1.146c0.229,0.016,0.654,0.262,1.277,0.74
					c0.546,0.445,0.82,0.771,0.82,0.979c0,0.143-0.129,0.286-0.387,0.43c-0.426,0.286-0.677,0.477-0.753,0.572v3.508
					c0.092,1.368,0.137,2.259,0.137,2.672c0,0.541-0.403,0.82-1.208,0.836c-0.608,0-0.927-0.159-0.958-0.478v-0.644h-6.108
					c-0.182,0.396-0.433,0.763-0.752,1.098c-0.289,0.381-0.6,0.748-0.934,1.098h9.823c0.608-0.67,1.026-1.003,1.254-1.003
					c0.228,0.032,0.607,0.263,1.14,0.692c0.623,0.477,0.934,0.812,0.934,1.002c0,0.207-0.235,0.461-0.707,0.764
					c-0.167,0.127-0.258,0.357-0.274,0.691c-0.167,2.816-0.433,5.092-0.796,6.825c-0.381,1.542-1.414,2.313-3.101,2.313
					c-0.258,0-0.425-0.214-0.501-0.643c-0.076-0.239-0.258-0.471-0.547-0.693c-0.486-0.381-1.17-0.611-2.051-0.691
					c0.03-0.063,0.045-0.207,0.045-0.43c0.851,0.048,1.565,0.08,2.143,0.096c1.382,0,2.119-0.533,2.21-1.599
					c0.35-1.448,0.54-3.644,0.57-6.586H79.942c-0.669,0.652-1.391,1.241-2.166,1.765c1.109,0.208,1.739,0.439,1.892,0.693
					c0,0.189-0.145,0.35-0.434,0.478c-0.41,0.206-0.615,0.341-0.615,0.405v3.365h8.182c0.335-0.414,0.585-0.717,0.753-0.908
					c-0.244-0.158-0.525-0.404-0.844-0.738c-0.835-0.732-1.648-1.29-2.438-1.671c-0.35,0.381-0.699,0.724-1.049,1.025
					c-0.911,0.859-1.96,1.583-3.146,2.172c-0.015-0.047-0.091-0.136-0.228-0.263c2.127-2.068,3.403-4.08,3.829-6.037
					c1.991,0.605,2.985,1.042,2.985,1.313c0,0.19-0.448,0.351-1.344,0.477c-0.182,0.271-0.38,0.525-0.593,0.764
					c2.659,0.398,3.989,1.011,3.989,1.838c0,0.223-0.046,0.438-0.138,0.645c-0.045,0.19-0.174,0.334-0.388,0.43
					c0.122,0.096,0.258,0.223,0.411,0.382c0.426,0.413,0.661,0.708,0.707,0.882c0,0.223-0.045,0.35-0.136,0.383H78.62v1.002
					c0,0.43-0.434,0.66-1.299,0.692c-0.501,0-0.752-0.136-0.752-0.406c0.045-1.653,0.068-3.548,0.068-5.679
					c-0.015-0.175-0.031-0.326-0.045-0.453c-1.034,0.636-2.143,1.225-3.328,1.766c-0.138-0.159-0.228-0.279-0.273-0.358
					c3.129-2.052,5.325-4.185,6.586-6.396c0.122-0.19,0.213-0.357,0.274-0.5h-1.208v0.285c-0.091,0.541-0.54,0.813-1.345,0.813
					c-0.501,0-0.806-0.088-0.912-0.264c0-1.463,0.03-2.879,0.091-4.247v-2.768C76.447,28.263,76.386,27.562,76.295,27.355z
					 M78.642,31.459h9.823v-2.673h-9.823V31.459z M78.642,34.967h9.823V32.08h-9.823V34.967z"/>
				<g>
					
						<ellipse transform="matrix(0.8772 0.4801 -0.4801 0.8772 26.7654 -29.8387)" fill="#FFFF98" cx="71.725" cy="37.414" rx="0.513" ry="0.071"/>
					
						<ellipse transform="matrix(-0.7833 0.6217 -0.6217 -0.7833 148.8779 15.9581)" fill="#FFFF98" cx="71.657" cy="33.931" rx="0.617" ry="0.066"/>
					<g>
						<path fill="#FFFF98" d="M71.588,31.154l-0.005,0.008c-2.754-1.896-6.523-1.207-8.426,1.543
							c-1.906,2.754-1.219,6.531,1.535,8.437l0.005-0.009c2.749,1.896,6.515,1.215,8.423-1.528
							C75.03,36.854,74.337,33.066,71.588,31.154z"/>
						
							<ellipse transform="matrix(0.9981 0.062 -0.062 0.9981 2.3558 -4.3034)" fill="#FFFF98" cx="70.486" cy="35.789" rx="0.307" ry="0.056"/>
						
							<ellipse transform="matrix(0.7883 -0.6153 0.6153 0.7883 -6.5157 50.5215)" fill="#FFFF98" cx="70.156" cy="34.729" rx="0.306" ry="0.056"/>
						<path fill="#FF602B" d="M67.31,36.238c0,0-3.285,0.611-3.576,0.772c0,0-0.628,0.483-0.14,1.19
							c0.486,0.707,1.162,1.88,1.958,1.006c0.797-0.875,1.968-2.584,1.968-2.584S67.657,36.158,67.31,36.238z"/>
						<path fill="#FF602B" d="M67.493,35.567c0,0-3.586-1.267-3.69-1.222c-0.105,0.045-0.992,0.531-0.581,1.802
							c0,0,0.007,0.771,1.147,0.482c1.139-0.288,3.114-0.614,3.22-0.698C67.698,35.845,67.666,35.625,67.493,35.567z"/>
						<path fill="#FF602B" d="M67.676,35.32c0.124-0.17-0.013-0.357-0.155-0.584c-0.139-0.226-1.933-2.485-2.166-2.595
							c-0.232-0.107-0.9,0.339-1.075,0.55c-0.176,0.211-1.181,1.342-0.13,1.533C65.2,34.414,67.491,35.57,67.676,35.32z"/>
						<path fill="#FF602B" d="M67.993,34.968c0,0,0.213,0.2,0.296-0.973c0.081-0.598,0.271-2.814-0.246-2.942
							c-0.519-0.128-2.732,0.32-2.253,1.138C66.271,33.011,67.817,34.933,67.993,34.968z"/>
						<path fill="#FF602B" d="M68.433,34.9c0,0,0.183-3.402,0.283-3.635c0.101-0.235,0.651-0.115,0.77-0.099
							c0.118,0.017,1.52,0.397,1.09,1.016C70.146,32.8,68.659,35.303,68.433,34.9z"/>
						
							<ellipse transform="matrix(-0.4085 -0.9128 0.9128 -0.4085 64.509 109.2743)" fill="#FFFF98" cx="67.661" cy="33.735" rx="0.296" ry="0.054"/>
						
							<ellipse transform="matrix(0.2999 -0.954 0.954 0.2999 15.9939 89.1445)" fill="#FFFF98" cx="68.73" cy="33.676" rx="0.296" ry="0.053"/>
						
							<ellipse transform="matrix(0.9636 0.2673 -0.2673 0.9636 11.8793 -16.6157)" fill="#FFFF98" cx="66.969" cy="35.325" rx="0.296" ry="0.054"/>
						
							<ellipse transform="matrix(-0.7306 -0.6828 0.6828 -0.7306 92.3622 104.945)" fill="#FFFF98" cx="66.883" cy="34.252" rx="0.296" ry="0.053"/>
						
							<ellipse transform="matrix(0.7411 -0.6714 0.6714 0.7411 -7.4613 54.3828)" fill="#FFFF98" cx="66.785" cy="36.866" rx="0.434" ry="0.086"/>
						
							<ellipse transform="matrix(-0.1927 -0.9813 0.9813 -0.1927 49.1036 105.798)" fill="#FFFF98" cx="68.073" cy="32.7" rx="0.343" ry="0.068"/>
						
							<ellipse transform="matrix(-0.8923 -0.4515 0.4515 -0.8923 109.7859 95.3014)" fill="#FFFF98" cx="66.262" cy="34.554" rx="0.343" ry="0.068"/>
						
							<ellipse transform="matrix(-0.7557 -0.6549 0.6549 -0.7557 93.7588 101.3072)" fill="#FFFF98" cx="65.775" cy="33.166" rx="0.494" ry="0.067"/>
						<path fill="#FFFF98" d="M66.21,36.847c-0.018-0.025-0.248,0.108-0.514,0.302c-0.267,0.193-0.467,0.37-0.45,0.397
							c0.017,0.025,0.248-0.109,0.513-0.301C66.026,37.052,66.227,36.875,66.21,36.847z"/>
						<path fill="#FFFF98" d="M66.166,37.838c-0.023-0.021-0.211,0.168-0.417,0.423c-0.208,0.256-0.357,0.479-0.333,0.501
							c0.024,0.021,0.21-0.169,0.417-0.424C66.041,38.083,66.19,37.859,66.166,37.838z"/>
						<path fill="#FFFF98" d="M65.516,35.028c0.005-0.032-0.255-0.087-0.583-0.124c-0.326-0.037-0.595-0.041-0.6-0.01
							c-0.005,0.031,0.256,0.086,0.582,0.123C65.242,35.054,65.51,35.058,65.516,35.028z"/>
						<path fill="#FFFF98" d="M65.176,35.789c0.009-0.029-0.184-0.035-0.429-0.016c-0.248,0.021-0.454,0.061-0.463,0.09
							c-0.009,0.028,0.185,0.035,0.43,0.015C64.959,35.857,65.167,35.818,65.176,35.789z"/>
						<path fill="#FFFF98" d="M66.179,35.723c0.018-0.024-0.165-0.087-0.407-0.14c-0.242-0.053-0.451-0.074-0.468-0.049
							s0.166,0.088,0.407,0.139C65.953,35.726,66.162,35.749,66.179,35.723z"/>
						
							<ellipse transform="matrix(-0.3087 0.9512 -0.9512 -0.3087 120.7136 -23.6322)" fill="#FFFF98" cx="68.945" cy="32.05" rx="0.595" ry="0.064"/>
						<path fill="#FFFF98" d="M69.122,33.007c0.033,0.014,0.143-0.23,0.244-0.543s0.157-0.576,0.123-0.588
							c-0.032-0.013-0.142,0.23-0.243,0.543C69.144,32.732,69.088,32.996,69.122,33.007z"/>
						<path fill="#FFFF98" d="M67.124,31.763c-0.031,0.007,0.019,0.269,0.111,0.584c0.092,0.315,0.191,0.564,0.223,0.558
							c0.03-0.007-0.02-0.269-0.111-0.585C67.254,32.005,67.154,31.755,67.124,31.763z"/>
						<path fill="#FF602B" d="M68.166,36.833c0,0,0.599,3.412,0.548,3.754c0,0-0.241,0.784-1.105,0.568
							c-0.863-0.215-2.248-0.445-1.688-1.537c0.561-1.092,1.795-2.849,1.795-2.849S68.118,36.467,68.166,36.833z"/>
						<path fill="#FF602B" d="M68.769,36.618c0,0,2.532,3.022,2.527,3.141c-0.007,0.118-0.158,1.155-1.54,1.216
							c0,0-0.75,0.275-0.885-0.937c-0.134-1.212-0.534-3.247-0.49-3.382C68.424,36.519,68.65,36.471,68.769,36.618z"/>
						<path fill="#FF602B" d="M68.907,36.387c0.115-0.177,0.339-0.113,0.601-0.06c0.259,0.051,3.005,0.94,3.188,1.12
							c0.183,0.181-0.001,0.962-0.138,1.2c-0.136,0.238-0.845,1.576-1.391,0.659C70.623,38.39,68.737,36.646,68.907,36.387z"/>
						<path fill="#FF602B" d="M69.076,35.463c0,0,3.238-1.413,3.428-1.596c0.191-0.183-0.125-0.673-0.185-0.783
							c-0.059-0.108-0.937-1.331-1.382-0.689C70.492,33.037,68.602,35.39,69.076,35.463z"/>
						<path fill="#FFB82B" d="M71.803,30.867L71.803,30.867c-2.903-1.881-6.808-1.124-8.79,1.739
							c-1.982,2.862-1.315,6.784,1.467,8.839l0.006-0.01c2.897,1.872,6.792,1.119,8.774-1.732
							C75.25,36.843,74.581,32.927,71.803,30.867z M72.945,39.482c-1.866,2.686-5.533,3.392-8.256,1.625l-0.006,0.009
							c-2.593-1.937-3.208-5.608-1.353-8.291c1.861-2.688,5.524-3.401,8.252-1.643C74.186,33.121,74.812,36.797,72.945,39.482z"/>
						
							<ellipse transform="matrix(-0.5887 -0.8083 0.8083 -0.5887 79.9926 114.776)" fill="#FFFF98" cx="69.194" cy="37.039" rx="0.307" ry="0.056"/>
						
							<ellipse transform="matrix(0.8962 0.4437 -0.4437 0.8962 23.5945 -27.3645)" fill="#FFFF98" cx="70.267" cy="36.732" rx="0.307" ry="0.056"/>
						
							<ellipse transform="matrix(0.3706 -0.9288 0.9288 0.3706 7.5612 86.7131)" fill="#FFFF98" cx="67.764" cy="37.777" rx="0.451" ry="0.088"/>
						
							<ellipse transform="matrix(0.736 0.677 -0.677 0.736 43.8811 -37.6378)" fill="#FFFF98" cx="70.2" cy="37.445" rx="0.356" ry="0.071"/>
						
							<ellipse transform="matrix(-0.0629 0.998 -0.998 -0.0629 111.9715 -25.8873)" fill="#FFFF98" cx="68.139" cy="39.624" rx="0.512" ry="0.07"/>
						<path fill="#FFFF98" d="M67.991,38.329c0.033,0.008-0.014,0.28-0.106,0.607c-0.09,0.329-0.19,0.589-0.221,0.582
							c-0.033-0.007,0.015-0.28,0.104-0.608C67.859,38.583,67.958,38.322,67.991,38.329z"/>
						<path fill="#FFFF98" d="M67.045,38.73c0.029,0.016-0.087,0.267-0.261,0.561c-0.172,0.293-0.335,0.52-0.364,0.504
							c-0.03-0.016,0.087-0.266,0.259-0.56C66.853,38.941,67.016,38.714,67.045,38.73z"/>
						<path fill="#FFFF98" d="M70.011,38.342c0.028-0.017,0.177,0.217,0.331,0.521c0.154,0.303,0.256,0.562,0.228,0.579
							c-0.029,0.017-0.177-0.217-0.331-0.521S69.982,38.359,70.011,38.342z"/>
						<path fill="#FFFF98" d="M69.395,38.949c0.025-0.02,0.101,0.164,0.171,0.41c0.07,0.248,0.106,0.463,0.082,0.482
							s-0.102-0.165-0.171-0.411C69.407,39.183,69.37,38.966,69.395,38.949z"/>
						<path fill="#FFFF98" d="M69.094,37.951c0.019-0.027,0.146,0.128,0.284,0.344c0.138,0.216,0.235,0.41,0.218,0.437
							c-0.019,0.026-0.146-0.128-0.283-0.344C69.174,38.171,69.076,37.976,69.094,37.951z"/>
						<path fill="#FFFF98" d="M70.663,34.107c-0.024-0.027,0.172-0.223,0.439-0.434c0.266-0.213,0.501-0.361,0.526-0.334
							c0.024,0.027-0.173,0.222-0.439,0.434C70.922,33.985,70.687,34.134,70.663,34.107z"/>
						<path fill="#FF602B" d="M69.169,35.915c0,0-0.272-0.135,0.837-0.642c0.551-0.295,2.634-1.285,2.947-0.828
							c0.312,0.455,0.68,2.77-0.289,2.6C71.694,36.876,69.267,36.072,69.169,35.915z"/>
					</g>
					
						<ellipse transform="matrix(0.9866 -0.1634 0.1634 0.9866 -4.7623 12.1276)" fill="#FFFF98" cx="71.342" cy="35.014" rx="0.356" ry="0.07"/>
					<path fill="#FFFF98" d="M72.597,35.595c0.004,0.033-0.268,0.079-0.608,0.104c-0.339,0.025-0.618,0.02-0.623-0.014
						c-0.004-0.032,0.269-0.078,0.608-0.104C72.314,35.556,72.593,35.563,72.597,35.595z"/>
				</g>
			</g>
		</g>
		<g>
			<path fill="#0C0B0B" d="M38.923,66.936c-1.424-0.015-2.547-0.544-3.431-1.615l1.315-3.242c1.471,0.878,1.93,0.995,2.162,0.995
				c0.565,0,1.057-0.194,1.462-0.578c0.409-0.389,0.616-0.866,0.616-1.419v-4.46l-1.786-0.11l-0.621-2.526l2.407-0.078v-0.095
				l1.651,0.021v0.009l0.273,0.021l2.084-0.048l-0.158,2.992l-1.878-0.08l0.027,0.303c0.264,2.869,0.416,4.743,0.453,5.567
				c0.05,1.222-0.375,2.235-1.301,3.102c-0.885,0.825-1.938,1.244-3.131,1.244L38.923,66.936z"/>
			<path fill="#0C0B0B" d="M56.235,66.669l0.033-2.123l-0.455,0.408c-0.643,0.576-1.395,0.895-2.234,0.943
				c-0.086,0.006-0.171,0.008-0.256,0.008c-0.98,0-1.82-0.348-2.567-1.066c-0.819-0.783-1.25-1.75-1.317-2.952
				c-0.083-1.545,0.116-3.153,0.592-4.784l3.415,0.365c-0.085,0.283-0.193,0.698-0.324,1.257c-0.217,1.032-0.326,1.875-0.326,2.511
				c0,0.588,0.153,1.104,0.455,1.538c0.368,0.503,0.849,0.755,1.433,0.755l0.068-0.002c0.769-0.061,1.301-0.454,1.594-1.168
				l0.02-0.049v-4.696h3.413l-1.583,9.247L56.235,66.669z"/>
			<path fill="#0C0B0B" d="M65.955,66.724l-1.859-8.24l4.764-0.54l-1.375,8.78H65.955z M66.434,57.32
				c-0.643,0-1.182-0.227-1.649-0.693c-0.467-0.468-0.694-1.008-0.694-1.651c0-0.659,0.227-1.202,0.693-1.659
				c0.467-0.46,1.007-0.684,1.651-0.684c0.661,0,1.206,0.223,1.663,0.681c0.458,0.458,0.681,1.003,0.681,1.662
				c0,0.646-0.223,1.185-0.683,1.652C67.637,57.093,67.094,57.32,66.434,57.32z"/>
			<path fill="#0C0B0B" d="M78.634,67.842c-1.483,0-2.769-0.529-3.821-1.574c-1.053-1.044-1.587-2.315-1.587-3.78
				c0-1.463,0.534-2.73,1.586-3.766c1.053-1.035,2.338-1.562,3.822-1.562c0.768,0,1.51,0.155,2.21,0.464l-1.309,4.428
				c-0.28-0.117-0.582-0.177-0.901-0.177c-0.655,0-1.22,0.228-1.678,0.675c-0.459,0.449-0.693,1.012-0.693,1.67
				c0,0.639,0.233,1.195,0.691,1.653c0.458,0.458,1.022,0.69,1.68,0.69c0.237,0,0.466-0.034,0.686-0.104l0.411,1.271
				C79.376,67.804,79.009,67.842,78.634,67.842z"/>
			<path fill="#0C0B0B" d="M89.689,67.389c-1.195,0-2.278-0.37-3.219-1.103c-0.939-0.729-1.543-1.693-1.794-2.869
				c-0.085-0.373-0.128-0.748-0.128-1.115c0-1.176,0.384-2.248,1.14-3.189s1.746-1.556,2.941-1.826
				c0.387-0.083,0.772-0.126,1.14-0.126c1.194,0,2.281,0.376,3.232,1.116c0.949,0.739,1.557,1.7,1.808,2.855
				c0.091,0.41,0.135,0.895,0.13,1.447l-7.047,2.033l0.147,0.288c0.421,0.821,1.11,1.237,2.049,1.237
				c0.383,0,0.74-0.086,1.063-0.253l1.283,0.747C91.613,67.135,90.691,67.389,89.689,67.389z M90.116,60.943
				c-0.658,0-1.224,0.238-1.682,0.707c-0.464,0.473-0.669,1.049-0.608,1.715l0.03,0.334l4.384-1.44l-0.198-0.292
				C91.582,61.287,90.934,60.943,90.116,60.943z"/>
		</g>
	</g>
</g>
</svg>
